<svg width="242" height="173" viewBox="0 0 242 173" fill="none" xmlns="http://www.w3.org/2000/svg">
<path d="M204.429 104.857L219 117.714M204.429 104.857L212.143 129.286M204.429 104.857L203.571 137.429M204.429 104.857L195.857 130.571M204.429 104.857L192 119" stroke="#BBBBBB" stroke-width="5" stroke-linecap="round" stroke-linejoin="round"/>
<path d="M204 108.714V56" stroke="#BBBBBB" stroke-width="8" stroke-linecap="round" stroke-linejoin="round"/>
<path d="M114.921 74L114.766 73.9974C104.927 73.8339 97 65.8051 97 55.9257C97 45.9436 105.092 37.8515 115.074 37.8515C117.397 37.8515 119.606 38.2871 121.633 39.0766L127.655 41.4229L128.413 35.0043C129.472 26.0374 137.108 19.0792 146.361 19.0792C149.386 19.0792 152.224 19.8183 154.717 21.1214L160.147 23.9588L161.839 18.0708C164.009 10.5182 170.973 5 179.213 5C189.195 5 197.287 13.0921 197.287 23.0743C197.287 23.5645 197.268 24.0491 197.23 24.5276L196.577 32.7576L204.173 29.523C206.951 28.3402 210.011 27.6832 213.238 27.6832C226.028 27.6832 236.396 38.0515 236.396 50.8416C236.396 63.6316 226.028 74 213.238 74H114.921Z" fill="white" stroke="#BBBBBB" stroke-width="10"/>
<path d="M72.4126 42.9974L72.1497 48.2475H77.4063H116.238V78.9208H22.9203L22.7662 78.9182C12.9272 78.7547 5 70.7259 5 60.8465C5 50.8644 13.0921 42.7723 23.0743 42.7723C25.397 42.7723 27.606 43.2079 29.6325 43.9974L35.6549 46.3437L36.4131 39.9251C37.4723 30.9582 45.1079 24 54.3614 24C64.3435 24 72.4356 32.0921 72.4356 42.0743C72.4356 42.3843 72.4279 42.692 72.4126 42.9974Z" stroke="#848484" stroke-width="10"/>
<path d="M65.5 114L82.5 129M65.5 114L74.5 142.5M65.5 114L64.5 152M65.5 114L55.5 144M65.5 114L51 130.5" stroke="#1D7C9B" stroke-width="7" stroke-linecap="round" stroke-linejoin="round"/>
<path d="M65 118.5V57" stroke="#1D7C9B" stroke-width="10" stroke-linecap="round" stroke-linejoin="round"/>
<path d="M127.5 131L144.5 146M127.5 131L136.5 159.5M127.5 131L126.5 169M127.5 131L117.5 161M127.5 131L113 147.5" stroke="#1D7C9B" stroke-width="7" stroke-linecap="round" stroke-linejoin="round"/>
<path d="M127 135.5V74" stroke="#1D7C9B" stroke-width="10" stroke-linecap="round" stroke-linejoin="round"/>
<path d="M42.2915 110L42.0831 109.997C28.7454 109.775 18 98.8918 18 85.5C18 71.969 28.969 61 42.5 61C45.6452 61 48.6407 61.5902 51.3901 62.6613L57.4124 65.0076L58.1707 58.589C59.6067 46.4324 69.9554 37 82.5 37C86.5971 37 90.4455 38.0017 93.828 39.7693L99.2575 42.6067L100.949 36.7186C103.89 26.482 113.328 19 124.5 19C138.031 19 149 29.969 149 43.5C149 44.1635 148.974 44.8198 148.922 45.4681L148.27 53.6981L155.866 50.4635C159.586 48.8792 163.684 48 168 48C185.121 48 199 61.8792 199 79C199 96.1208 185.121 110 168 110H42.2915Z" fill="white" stroke="#1D7C9B" stroke-width="10"/>
<path d="M93.3379 66.9766L87.8359 88H82.4043L90.4023 62.4062H93.7949L93.3379 66.9766ZM97.6797 88L92.1426 66.9766L91.6328 62.4062H95.0781L103.146 88H97.6797ZM97.873 78.4551V82.7266H86.3242V78.4551H97.873ZM114.309 78.9824H109.07V74.7109H114.309C115.035 74.7109 115.627 74.5469 116.084 74.2188C116.553 73.8906 116.893 73.4395 117.104 72.8652C117.314 72.2793 117.42 71.623 117.42 70.8965C117.42 70.1582 117.309 69.4727 117.086 68.8398C116.875 68.1953 116.541 67.6738 116.084 67.2754C115.639 66.877 115.047 66.6777 114.309 66.6777H110.723V88H105.59V62.4062H114.309C116.031 62.4062 117.514 62.7695 118.756 63.4961C119.998 64.2227 120.947 65.2246 121.604 66.502C122.271 67.7676 122.605 69.2207 122.605 70.8613C122.605 72.5137 122.271 73.9492 121.604 75.168C120.947 76.375 119.998 77.3125 118.756 77.9805C117.514 78.6484 116.031 78.9824 114.309 78.9824ZM131.395 62.4062V88H126.279V62.4062H131.395Z" fill="#1D7C9B"/>
</svg>
