<svg width="273" height="174" viewBox="0 0 273 174" fill="none" xmlns="http://www.w3.org/2000/svg">
<rect x="101" y="5" width="166.978" height="113" rx="15" fill="white" stroke="#BBBBBB" stroke-width="10"/>
<rect x="5" y="22" width="166.978" height="113" rx="15" fill="white" stroke="#848484" stroke-width="10"/>
<rect x="42" y="40" width="190" height="129" rx="15" fill="white" stroke="#1D7C9B" stroke-width="10"/>
<rect x="124" y="127" width="25" height="31" rx="10" fill="#1D7C9B"/>
<rect x="94" y="105" width="25" height="53" rx="10" fill="#1D7C9B"/>
<rect x="64" y="138" width="25" height="20" rx="10" fill="#E11E1E"/>
<rect x="154" y="85" width="25" height="73" rx="10" fill="#178D42"/>
<rect x="184" y="105" width="25" height="53" rx="10" fill="#E11E1E"/>
<path d="M72 97L105 67L135 88.5L164 60L196 82.5" stroke="#178D42" stroke-width="7" stroke-linecap="round" stroke-linejoin="round"/>
<circle cx="104.5" cy="67.5" r="7" fill="#178D42" stroke="#178D42"/>
<circle cx="163.5" cy="60.5" r="7" fill="#178D42" stroke="#178D42"/>
<circle cx="136.5" cy="87.5" r="7" fill="#178D42" stroke="#178D42"/>
</svg>
