<svg version="1" xmlns="http://www.w3.org/2000/svg" width="933.333" height="933.333" viewBox="0 0 700.000000 700.000000"><path d="M322 1.1C233.7 8.2 150.8 48.6 91.8 113.4c-45.6 50-75.6 111.5-86.7 177.3C1.5 312.1.5 324.1.5 350c0 33.6 2.6 55.6 10.1 85.5 21.1 84.8 73.8 159 146.9 206.9 47.3 31.1 95.9 48.5 156 55.8 13 1.6 60 1.6 73 0 35.2-4.3 63.4-11.2 92.5-22.7 80.9-32 146.5-92.6 185-171 13.6-27.7 22.1-52.4 28.4-82.4 27.2-129.8-20.9-263.8-124.2-346C499 21 410.5-6 322 1.1zm48.5 87.2c6.4 3.1 9.6 5.5 17 13 5 5.1 11.5 12.8 14.3 17.2 11.2 17.1 22.3 43 29.7 69 2.1 7.1 3.9 13.2 4.1 13.4.6.6 24.6-5 25.9-6 .6-.5 1.7-3.1 2.4-5.9 1.6-6.2 7.4-14.1 13.6-18.6 6.9-4.9 13.6-6.9 22.7-6.8 6.8.1 8.6.5 15.3 3.8 8.3 4.1 13.4 9.2 17.5 17.8 2.4 5 2.7 5.3 8 6.3 31.8 6.5 47.8 26.5 43.1 54.1-4.4 26.2-20.7 53.3-53.2 88.4l-11.6 12.6 11.1 11.5c24.8 25.9 43.5 53.9 50.5 75.7 10.9 33.9-2.2 57.7-36.7 66.5-7.8 2-11.1 2.2-31.2 2.2-25.1-.1-35.8-1.5-62.8-8.1-7.9-2-14.5-3.4-14.6-3.2-.2.1-2 6-4 13.1l-3.7 12.7 4.5 5.1c11.1 12.4 12.3 31 2.8 44.9-7.5 11-17.8 16.3-31.6 16.2l-8.3-.1-6.8 7c-7.3 7.3-14.4 12.6-20.8 15.2-29 12.2-59.1-10.9-81.4-62.3-5.1-11.5-14.6-39.4-15.8-46.1-1.2-6.5-.9-6.4-16.6-2.5-27 6.7-37.6 8-63.4 8-20.6 0-23.8-.2-31-2.2-24-6.6-36.5-18.5-39.5-37.6-4.1-26.2 15.7-64.6 54.4-105.2l10.6-11.2-9.3-9.7-9.3-9.8-5.3 1.3c-16.9 4-34.9-4.9-42.5-21-5.4-11.4-3.9-26.7 3.5-37l3.1-4.2-2.8-9.7c-3.4-11.7-3.8-24.4-1.1-33.2 3.7-12.4 14.7-22.7 29.7-28 12.1-4.3 20.7-5.4 40.5-5.3 20.8.1 37.6 2.3 60.3 7.9 7.9 1.9 14.9 3.5 15.7 3.5.8 0 1.9-1.8 2.5-4.3.5-2.3 3.3-11.4 6.1-20.2 16.1-50.2 38.1-81.7 63.4-90.8 3.7-1.3 7.3-1.7 14-1.4 8.1.2 10 .7 17 4z"/><path d="M345.2 122c-11.5 8.3-25.4 32.8-35.1 61.9-4.1 12.3-8.5 28.1-7.9 28.6.2.1 5.3 2.1 11.3 4.5 6.1 2.3 17 6.9 24.3 10.1 7.3 3.3 13.7 5.9 14.3 5.9.6 0 7-2.6 14.2-5.8 7.3-3.3 18.3-7.9 24.5-10.3l11.3-4.3-.6-3.5c-1.2-6.1-8.4-28.9-12.5-39.2-7.6-19-16.1-33.8-24.7-43.1-8.1-8.6-12.4-9.7-19.1-4.8zM172.5 225c-12.8 2.3-18.5 6-18.5 12.1 0 5.4 3.8 16.9 5.8 17.6 5.9 1.9 14.5 6.6 18 9.8 8.1 7.2 13 19.9 11.8 30.3l-.6 5.3 7.1 7.7c3.9 4.2 8.9 9.3 11.2 11.4l4 3.6 9.6-7.8c5.3-4.2 15-11.7 21.6-16.5l12-8.7 1.2-12.2c.7-6.6 2.2-18.5 3.3-26.4 1.1-7.9 1.8-14.7 1.5-15.2-.6-1-23-6.5-37.4-9.1-12-2.2-42.6-3.4-50.6-1.9zM524.5 228c-1.6 1.7-5.7 4.4-9 6.1-11.8 5.8-26.8 4.7-37.5-2.7l-4.9-3.4-14.3 3.6c-7.9 2-14.7 3.9-15.2 4.4-.4.4-.1 5.2.8 10.7.9 5.4 2.5 17.4 3.6 26.7 1.4 13.1 2.2 17.1 3.5 17.8 2.9 1.7 25.9 19 33.9 25.6l8 6.6 9.9-10.5c18-19.1 32.2-37.8 39.5-52.5 6.9-13.6 9.1-25.4 5.5-29-2.7-2.7-9.4-5.3-15.4-6-5.1-.6-5.6-.4-8.4 2.6zM294.5 248.2c-.8 2.5-2.6 16.1-2.1 16.5.6.6 18.6-9.8 18.6-10.7 0-.4-1.2-1.3-2.7-1.8-1.6-.6-5.2-2-8.1-3.1-4-1.6-5.4-1.8-5.7-.9zM400.8 250.3c-4.3 1.6-7.8 3.3-7.8 3.7 0 .9 18.2 11.2 18.8 10.6.5-.6-1.9-15.9-2.7-16.8-.3-.3-4.1.8-8.3 2.5zM339.5 278.7c-13.1 7.1-45.5 26.2-49.5 29.3l-2.5 1.9-.4 28.7c-.1 15.8 0 32.4.4 36.8l.6 8.1 9.7 6.1c18.6 11.8 51.9 30.4 54.2 30.4 1.9 0 33.7-17.6 50.1-27.7 12.9-8 13.7-8.6 14.3-12.1.8-4.9.8-62.6 0-67.5-.7-4.2-2.8-5.7-24.9-18.9-10.8-6.3-39.2-21.9-39.7-21.7-.2.1-5.7 3-12.3 6.6zm23.4 18.8c23.2 5.5 39.2 25.9 39.2 49.9 0 29.3-22.1 51.6-51.2 51.8-14.9.1-26.7-4.8-36.9-15.2-19.4-19.6-20-50.9-1.4-71 13.3-14.3 31.4-19.9 50.3-15.5zM245 340.1c-3.6 2.8-6.6 5.4-6.8 5.8-.1.5 2.9 3.4 6.8 6.5l7 5.7v-11.6c0-6.3-.1-11.5-.2-11.5-.2 0-3.2 2.3-6.8 5.1zM452 346.5V358l6.5-5.1c3.6-2.8 6.8-5.5 7.1-6.1.7-1-1.6-3.2-9.3-8.8l-4.3-3.1v11.6zM199.5 381.2c-18.3 19.2-30.3 35.4-38.3 51.3-7 14-9.2 25.5-5.4 28.7 9.4 8.3 37.9 10 69.7 4.2 11-2 32.7-7.3 34.4-8.3 1.2-.8 1-3.9-1.3-20.2-1.4-10.7-3-22.7-3.4-26.8l-.7-7.4-9.3-6.7c-5.2-3.7-14.6-10.9-21-16s-12.2-9.4-12.8-9.7c-.6-.2-6 4.7-11.9 10.9zM485 376.1c-4.1 3.3-13.8 10.7-21.6 16.5L449.3 403l-.7 8.8c-.3 4.8-1.8 16.7-3.2 26.5-1.4 9.8-2.4 18.1-2.1 18.3 1 1 18.5 5.5 30.7 7.8 35.3 6.9 64.2 5.6 74.3-3.2 3.9-3.4.8-17.9-7.1-32.2-5-9.3-10.4-17.1-19-27.9-7.4-9.2-27.8-31.1-29.1-31.1-.3 0-4 2.8-8.1 6.1zM292.3 430.6l1.3 9.1c.4 3.4 1.1 5.3 2 5.3 1.4 0 15.1-5.3 16-6.2.3-.3-2.1-2-5.3-3.8-3.2-1.8-7.8-4.4-10.2-5.8l-4.4-2.6.6 4zM402 432.7c-5.2 3-9.6 5.6-9.8 5.8-.4.4 15.1 6.5 16.4 6.5 1.1 0 4.1-16.6 3.2-17.5-.2-.2-4.6 2.1-9.8 5.2zM344.4 462.4c-4 1.9-14.8 6.4-24 10.1-9.3 3.7-17.3 7.1-17.8 7.6-1.1 1 4.1 20.1 9.9 36 8.3 22.7 18.7 41.3 29 51.5 8.7 8.7 12.6 8.5 22.2-1.1 3.6-3.6 6.2-6.8 5.9-7.3-.3-.5-.9-3.5-1.4-6.8-1.2-7.2 0-15.7 3-22.2 2.9-6.2 11.2-14.3 17.5-17.3l5.1-2.3 3.1-10c4.4-14.7 5.5-19.6 4.5-20.6-.5-.5-6.1-2.9-12.4-5.3-6.3-2.4-17.2-7-24.2-10.1-7-3.1-12.8-5.6-13-5.6-.2.1-3.5 1.6-7.4 3.4z"/></svg>