<svg width="1440" height="110" viewBox="0 0 1440 110" fill="none" xmlns="http://www.w3.org/2000/svg">
<mask id="mask0" mask-type="alpha" maskUnits="userSpaceOnUse" x="0" y="0" width="1440" height="110">
<rect width="1440" height="110" fill="#0B5F29"/>
</mask>
<g mask="url(#mask0)">
<path fill-rule="evenodd" clip-rule="evenodd" d="M75.3178 -5.20467L113.995 5.95282L115.118 2.08326L74.7919 -9.54978L59.6843 -0.827427L52.0118 -6.07657L40.4028 -13.3611L38.2562 -9.94957L48.0249 -3.81984L36.0013 13.0563L39.2837 15.3893L51.3972 -1.61312L53.119 -0.435104L47.9577 22.9709L51.8937 23.8327L56.7042 2.01769L57.8066 2.77189L64.1989 30.0956L68.1237 29.1739L61.894 2.54558L63.84 1.42206L79.9438 29.3147L83.4356 27.2987L67.3318 -0.593936L69.3191 -1.74134L95.3204 21.1776L97.9889 18.1558L73.0029 -3.86818L75.3178 -5.20467ZM93.6142 -22.6703L77.3796 -37.0533L45.9703 -29.5321L45.0359 -33.4486L78.4865 -41.4587L80.4271 -39.7394L80.3985 -44.1516L84.4289 -44.1829L84.4809 -36.1479L96.2903 -25.6854L93.6142 -22.6703ZM16.532 -0.363337L20.2252 1.24468L14.451 14.455L17.0637 29.2209L13.0948 29.9272L10.27 13.9629L16.532 -0.363337Z" fill="#08481F"/>
<path fill-rule="evenodd" clip-rule="evenodd" d="M96.8978 -19.6562C97.7713 -18.1432 99.7077 -17.6259 101.223 -18.5007C102.738 -19.3756 103.258 -21.3112 102.385 -22.8242C101.511 -24.3371 99.5749 -24.8545 98.0597 -23.9796C96.5445 -23.1048 96.0242 -21.1691 96.8978 -19.6562ZM93.4059 -17.6402C95.3912 -14.2016 99.7922 -13.0259 103.236 -15.0142C106.68 -17.0024 107.862 -21.4016 105.877 -24.8402C103.891 -28.2787 99.4904 -29.4544 96.0467 -27.4662C92.603 -25.478 91.4207 -21.0787 93.4059 -17.6402Z" fill="#08481F"/>
<path fill-rule="evenodd" clip-rule="evenodd" d="M80.0075 -47.7589C80.881 -46.246 82.8175 -45.7286 84.3327 -46.6035C85.848 -47.4783 86.3682 -49.414 85.4947 -50.9269C84.6212 -52.4399 82.6847 -52.9572 81.1695 -52.0824C79.6542 -51.2075 79.134 -49.2719 80.0075 -47.7589ZM76.5157 -45.7429C78.501 -42.3044 82.902 -41.1287 86.3457 -43.1169C89.7894 -45.1051 90.9717 -49.5044 88.9865 -52.9429C87.0012 -56.3815 82.6002 -57.5572 79.1565 -55.5689C75.7128 -53.5807 74.5305 -49.1815 76.5157 -45.7429Z" fill="#08481F"/>
<path fill-rule="evenodd" clip-rule="evenodd" d="M116.781 6.71854C117.654 8.23149 119.591 8.74881 121.106 7.87399C122.621 6.99917 123.142 5.06349 122.268 3.55054C121.395 2.03758 119.458 1.52026 117.943 2.39507C116.428 3.26989 115.907 5.20558 116.781 6.71854ZM113.289 8.73454C115.274 12.1731 119.675 13.3488 123.119 11.3606C126.563 9.37234 127.745 4.97308 125.76 1.53454C123.775 -1.90401 119.374 -3.07972 115.93 -1.0915C112.486 0.896726 111.304 5.29599 113.289 8.73454Z" fill="#08481F"/>
<path fill-rule="evenodd" clip-rule="evenodd" d="M98.2832 25.3675C99.1567 26.8805 101.093 27.3978 102.608 26.523C104.124 25.6482 104.644 23.7125 103.77 22.1995C102.897 20.6866 100.96 20.1693 99.4452 21.0441C97.9299 21.9189 97.4097 23.8546 98.2832 25.3675ZM94.7914 27.3835C96.7767 30.8221 101.178 31.9978 104.621 30.0096C108.065 28.0213 109.247 23.6221 107.262 20.1835C105.277 16.745 100.876 15.5693 97.4322 17.5575C93.9885 19.5457 92.8062 23.945 94.7914 27.3835Z" fill="#08481F"/>
<path fill-rule="evenodd" clip-rule="evenodd" d="M82.6082 35.0816C83.4817 36.5946 85.4182 37.1119 86.9334 36.2371C88.4486 35.3622 88.9689 33.4266 88.0954 31.9136C87.2219 30.4007 85.2854 29.8833 83.7702 30.7582C82.2549 31.633 81.7347 33.5687 82.6082 35.0816ZM79.1164 37.0976C81.1016 40.5362 85.5027 41.7119 88.9464 39.7236C92.3901 37.7354 93.5724 33.3362 91.5872 29.8976C89.6019 26.4591 85.2009 25.2833 81.7572 27.2716C78.3135 29.2598 77.1312 33.6591 79.1164 37.0976Z" fill="#08481F"/>
<path fill-rule="evenodd" clip-rule="evenodd" d="M64.9789 37.9547C65.8524 39.4677 67.7888 39.985 69.3041 39.1102C70.8193 38.2353 71.3395 36.2997 70.466 34.7867C69.5925 33.2737 67.6561 32.7564 66.1408 33.6313C64.6256 34.5061 64.1054 36.4417 64.9789 37.9547ZM61.4871 39.9707C63.4723 43.4092 67.8733 44.585 71.317 42.5967C74.7608 40.6085 75.9431 36.2092 73.9578 32.7707C71.9726 29.3322 67.5716 28.1564 64.1278 30.1447C60.6841 32.1329 59.5018 36.5322 61.4871 39.9707Z" fill="#08481F"/>
<path fill-rule="evenodd" clip-rule="evenodd" d="M46.029 31.6285C46.9025 33.1415 48.839 33.6588 50.3542 32.784C51.8694 31.9092 52.3896 29.9735 51.5161 28.4605C50.6426 26.9476 48.7062 26.4303 47.1909 27.3051C45.6757 28.1799 45.1555 30.1156 46.029 31.6285ZM42.5372 33.6445C44.5224 37.0831 48.9235 38.2588 52.3672 36.2706C55.8109 34.2824 56.9932 29.8831 55.008 26.4445C53.0227 23.006 48.6217 21.8303 45.178 23.8185C41.7343 25.8067 40.5519 30.206 42.5372 33.6445Z" fill="#08481F"/>
<path fill-rule="evenodd" clip-rule="evenodd" d="M31.416 20.1421C32.2895 21.655 34.2259 22.1723 35.7412 21.2975C37.2564 20.4227 37.7766 18.487 36.9031 16.9741C36.0296 15.4611 34.0932 14.9438 32.5779 15.8186C31.0627 16.6934 30.5425 18.6291 31.416 20.1421ZM27.9242 22.1581C29.9094 25.5966 34.3105 26.7723 37.7542 24.7841C41.1979 22.7959 42.3802 18.3966 40.3949 14.9581C38.4097 11.5195 34.0087 10.3438 30.565 12.332C27.1212 14.3203 25.9389 18.7195 27.9242 22.1581Z" fill="#08481F"/>
<path fill-rule="evenodd" clip-rule="evenodd" d="M13.552 36.4328C14.4255 37.9458 16.362 38.4631 17.8772 37.5883C19.3925 36.7134 19.9127 34.7778 19.0392 33.2648C18.1657 31.7518 16.2292 31.2345 14.714 32.1094C13.1988 32.9842 12.6785 34.9198 13.552 36.4328ZM10.0602 38.4488C12.0455 41.8874 16.4465 43.0631 19.8902 41.0748C23.3339 39.0866 24.5162 34.6874 22.531 31.2488C20.5457 27.8103 16.1447 26.6345 12.701 28.6228C9.2573 30.611 8.07498 35.0103 10.0602 38.4488Z" fill="#08481F"/>
<path fill-rule="evenodd" clip-rule="evenodd" d="M-12.8393 26.4337C-11.9658 27.9466 -10.0293 28.4639 -8.51411 27.5891C-6.99888 26.7143 -6.47865 24.7786 -7.35216 23.2657C-8.22567 21.7527 -10.1621 21.2354 -11.6774 22.1102C-13.1926 22.985 -13.7128 24.9207 -12.8393 26.4337ZM-16.3311 28.4497C-14.3459 31.8882 -9.94483 33.0639 -6.50113 31.0757C-3.05742 29.0875 -1.87511 24.6882 -3.86035 21.2497C-4.51023 20.124 -5.41898 19.2409 -6.46828 18.6319C-7.65478 17.9432 -9.02097 17.605 -10.3958 17.6629C-11.5193 17.7103 -12.6486 18.0222 -13.6903 18.6236C-17.134 20.6118 -18.3164 25.0111 -16.3311 28.4497Z" fill="#08481F"/>
<path fill-rule="evenodd" clip-rule="evenodd" d="M-21.6776 12.2773C-20.8041 13.7902 -18.8677 14.3075 -17.3524 13.4327C-15.8372 12.5579 -15.317 10.6222 -16.1905 9.10926C-17.064 7.5963 -19.0004 7.07898 -20.5157 7.9538C-22.0309 8.82862 -22.5511 10.7643 -21.6776 12.2773ZM-25.1694 14.2933C-23.1842 17.7318 -18.7831 18.9075 -15.3394 16.9193C-11.8957 14.9311 -10.7134 10.5318 -12.6987 7.09326C-13.2416 6.15281 -13.9653 5.38163 -14.8007 4.79815C-15.9274 4.01117 -17.2574 3.56565 -18.6212 3.50684C-19.9432 3.44983 -21.2972 3.75622 -22.5287 4.46722C-25.9724 6.45544 -27.1547 10.8547 -25.1694 14.2933Z" fill="#08481F"/>
<path d="M-4.92189 -8.02243L4.05296 -13.2041L2.90268 -15.1964L-36.9068 7.7876C-36.0333 9.30056 -36.5535 11.2362 -38.0687 12.111C-39.5839 12.9859 -41.5204 12.4686 -42.3939 10.9556L-45.8857 12.9716C-43.9005 16.4101 -39.4994 17.5859 -36.0557 15.5976C-33.3098 14.0123 -32.0017 10.894 -32.5908 7.9522L-16.7898 -1.17048L-18.6212 3.50684C-17.2574 3.56565 -15.9274 4.01117 -14.8007 4.79815L-11.2002 -4.39765L-8.58423 -5.90798L-6.11798 5.28893L-10.3958 17.6629C-9.02097 17.605 -7.65478 17.9432 -6.46828 18.6319L-1.93759 5.52642L-4.92189 -8.02243Z" fill="#08481F"/>
<path fill-rule="evenodd" clip-rule="evenodd" d="M1381.45 107.442L1368.33 69.386L1364.51 70.6937L1378.2 110.372L1394.02 117.712L1394.14 127.007L1394.86 140.694L1398.89 140.487L1398.28 128.97L1419 129.098L1419.02 125.071L1398.15 124.943L1398.12 122.856L1420.23 113.614L1418.67 109.899L1398.06 118.513L1398.05 117.177L1416.72 96.2307L1413.71 93.5505L1395.51 113.964L1393.47 113.019L1407.02 83.8009L1403.37 82.1043L1389.81 111.322L1387.73 110.356L1391.52 75.9039L1387.52 75.4594L1383.87 108.567L1381.45 107.442ZM1356.64 102.523L1354.21 124.076L1378.43 145.442L1375.76 148.459L1349.97 125.705L1350.26 123.129L1346.67 125.69L1344.32 122.411L1350.87 117.747L1352.63 102.068L1356.64 102.523ZM1419.22 152.743L1418.42 148.797L1432.54 145.921L1443.12 135.29L1445.98 138.13L1434.55 149.624L1419.22 152.743Z" fill="#08481F"/>
<path fill-rule="evenodd" clip-rule="evenodd" d="M1357.21 98.103C1357.95 96.5182 1357.26 94.6366 1355.67 93.9004C1354.08 93.1642 1352.2 93.8522 1351.47 95.437C1350.73 97.0219 1351.42 98.9034 1353.01 99.6396C1354.6 100.376 1356.48 99.6879 1357.21 98.103ZM1360.87 99.7996C1362.54 96.1977 1360.97 91.9214 1357.36 90.2482C1353.76 88.5751 1349.48 90.1386 1347.81 93.7405C1346.14 97.3424 1347.71 101.619 1351.31 103.292C1354.92 104.965 1359.2 103.401 1360.87 99.7996Z" fill="#08481F"/>
<path fill-rule="evenodd" clip-rule="evenodd" d="M1343.94 128.085C1344.68 126.5 1343.99 124.618 1342.4 123.882C1340.81 123.146 1338.93 123.834 1338.19 125.419C1337.46 127.004 1338.15 128.885 1339.74 129.621C1341.32 130.358 1343.21 129.67 1343.94 128.085ZM1347.6 129.781C1349.27 126.18 1347.7 121.903 1344.09 120.23C1340.49 118.557 1336.21 120.12 1334.54 123.722C1332.87 127.324 1334.44 131.6 1338.04 133.274C1341.65 134.947 1345.93 133.383 1347.6 129.781Z" fill="#08481F"/>
<path fill-rule="evenodd" clip-rule="evenodd" d="M1367.35 66.667C1368.08 65.0822 1367.39 63.2006 1365.81 62.4644C1364.22 61.7282 1362.34 62.4162 1361.6 64.001C1360.87 65.5859 1361.56 67.4674 1363.14 68.2036C1364.73 68.9398 1366.61 68.2519 1367.35 66.667ZM1371.01 68.3636C1372.68 64.7617 1371.11 60.4854 1367.5 58.8122C1363.89 57.1391 1359.61 58.7026 1357.94 62.3045C1356.27 65.9064 1357.84 70.1827 1361.45 71.8558C1365.06 73.529 1369.34 71.9655 1371.01 68.3636Z" fill="#08481F"/>
<path fill-rule="evenodd" clip-rule="evenodd" d="M1393.24 71.0701C1393.98 69.4853 1393.29 67.6037 1391.7 66.8675C1390.11 66.1313 1388.23 66.8193 1387.5 68.4041C1386.76 69.989 1387.45 71.8705 1389.04 72.6067C1390.63 73.3429 1392.51 72.655 1393.24 71.0701ZM1396.9 72.7667C1398.57 69.1648 1397 64.8885 1393.4 63.2153C1389.79 61.5421 1385.51 63.1057 1383.84 66.7076C1382.17 70.3095 1383.74 74.5858 1387.35 76.2589C1390.95 77.9321 1395.23 76.3686 1396.9 72.7667Z" fill="#08481F"/>
<path fill-rule="evenodd" clip-rule="evenodd" d="M1410.21 78.304C1410.94 76.7192 1410.25 74.8376 1408.66 74.1014C1407.08 73.3652 1405.2 74.0532 1404.46 75.638C1403.72 77.2229 1404.42 79.1044 1406 79.8406C1407.59 80.5768 1409.47 79.8889 1410.21 78.304ZM1413.87 80.0006C1415.54 76.3987 1413.97 72.1224 1410.36 70.4492C1406.75 68.776 1402.47 70.3396 1400.8 73.9415C1399.13 77.5434 1400.7 81.8197 1404.31 83.4928C1407.92 85.166 1412.19 83.6025 1413.87 80.0006Z" fill="#08481F"/>
<path fill-rule="evenodd" clip-rule="evenodd" d="M1422.7 91.0718C1423.43 89.487 1422.74 87.6054 1421.16 86.8692C1419.57 86.133 1417.69 86.8209 1416.95 88.4058C1416.22 89.9906 1416.91 91.8722 1418.49 92.6084C1420.08 93.3446 1421.96 92.6566 1422.7 91.0718ZM1426.36 92.7683C1428.03 89.1664 1426.46 84.8901 1422.85 83.217C1419.24 81.5438 1414.96 83.1073 1413.29 86.7092C1411.62 90.3111 1413.19 94.5874 1416.8 96.2606C1420.41 97.9338 1424.69 96.3702 1426.36 92.7683Z" fill="#08481F"/>
<path fill-rule="evenodd" clip-rule="evenodd" d="M1428.43 110.212C1429.16 108.627 1428.47 106.745 1426.88 106.009C1425.3 105.273 1423.41 105.961 1422.68 107.546C1421.94 109.13 1422.63 111.012 1424.22 111.748C1425.81 112.484 1427.69 111.796 1428.43 110.212ZM1432.08 111.908C1433.75 108.306 1432.18 104.03 1428.58 102.357C1424.97 100.684 1420.69 102.247 1419.02 105.849C1417.35 109.451 1418.92 113.727 1422.53 115.4C1426.13 117.074 1430.41 115.51 1432.08 111.908Z" fill="#08481F"/>
<path fill-rule="evenodd" clip-rule="evenodd" d="M1427.44 128.772C1428.17 127.187 1427.48 125.306 1425.89 124.57C1424.31 123.833 1422.42 124.521 1421.69 126.106C1420.95 127.691 1421.64 129.573 1423.23 130.309C1424.82 131.045 1426.7 130.357 1427.44 128.772ZM1431.09 130.469C1432.76 126.867 1431.19 122.591 1427.59 120.917C1423.98 119.244 1419.7 120.808 1418.03 124.41C1416.36 128.012 1417.93 132.288 1421.54 133.961C1425.14 135.634 1429.42 134.071 1431.09 130.469Z" fill="#08481F"/>
<path fill-rule="evenodd" clip-rule="evenodd" d="M1451.04 134.013C1451.77 132.429 1451.08 130.547 1449.49 129.811C1447.91 129.075 1446.02 129.763 1445.29 131.347C1444.55 132.932 1445.25 134.814 1446.83 135.55C1448.42 136.286 1450.3 135.598 1451.04 134.013ZM1454.69 135.71C1456.37 132.108 1454.8 127.832 1451.19 126.159C1447.58 124.485 1443.3 126.049 1441.63 129.651C1439.96 133.253 1441.53 137.529 1445.14 139.202C1448.75 140.875 1453.02 139.312 1454.69 135.71Z" fill="#08481F"/>
<path fill-rule="evenodd" clip-rule="evenodd" d="M1458.04 161.353C1458.77 159.768 1458.08 157.887 1456.5 157.15C1454.91 156.414 1453.03 157.102 1452.29 158.687C1451.56 160.272 1452.25 162.153 1453.83 162.89C1455.42 163.626 1457.3 162.938 1458.04 161.353ZM1461.7 163.05C1463.37 159.448 1461.8 155.171 1458.19 153.498C1454.58 151.825 1450.3 153.389 1448.63 156.991C1448.09 158.17 1447.89 159.421 1447.99 160.63C1448.11 161.996 1448.62 163.308 1449.46 164.4C1450.14 165.291 1451.05 166.036 1452.14 166.542C1455.75 168.215 1460.03 166.652 1461.7 163.05Z" fill="#08481F"/>
<path fill-rule="evenodd" clip-rule="evenodd" d="M1451.54 176.726C1452.28 175.141 1451.59 173.26 1450 172.523C1448.41 171.787 1446.53 172.475 1445.8 174.06C1445.06 175.645 1445.75 177.526 1447.34 178.263C1448.93 178.999 1450.81 178.311 1451.54 176.726ZM1455.2 178.423C1456.87 174.821 1455.3 170.544 1451.7 168.871C1448.09 167.198 1443.81 168.762 1442.14 172.363C1441.68 173.349 1441.47 174.384 1441.47 175.403C1441.47 176.777 1441.88 178.122 1442.61 179.271C1443.33 180.385 1444.36 181.317 1445.65 181.915C1449.25 183.588 1453.53 182.024 1455.2 178.423Z" fill="#08481F"/>
<path d="M1425.3 174.697L1415.9 170.337L1414.93 172.424L1456.63 191.766C1457.37 190.181 1459.25 189.493 1460.84 190.229C1462.42 190.965 1463.11 192.847 1462.38 194.432L1466.04 196.128C1467.71 192.527 1466.14 188.25 1462.53 186.577C1459.65 185.243 1456.35 185.967 1454.28 188.141L1437.73 180.464L1442.61 179.271C1441.88 178.122 1441.47 176.777 1441.47 175.403L1431.88 177.748L1429.14 176.477L1436.88 168.019L1449.46 164.4C1448.62 163.308 1448.11 161.996 1447.99 160.63L1434.67 164.462L1425.3 174.697Z" fill="#08481F"/>
</g>
</svg>
