<svg width="180" height="60" viewBox="0 0 180 60" fill="none" xmlns="http://www.w3.org/2000/svg">
<path d="M69.4512 17V16.2617L70.4062 16.0977V9.37695L69.4512 9.21289V8.46875H77.8184V9.21289L76.8633 9.37695V16.0977L77.8184 16.2617V17H74.7539V16.2617L75.709 16.0977V9.37695H71.5605V16.0977L72.5156 16.2617V17H69.4512ZM78.4922 19.4375V18.6934L79.3887 18.5293V11.5684L78.4336 11.4043V10.6602H80.3789L80.4844 11.4336C80.6953 11.1445 80.9512 10.9238 81.252 10.7715C81.5566 10.6191 81.9082 10.543 82.3066 10.543C82.8301 10.543 83.2773 10.6855 83.6484 10.9707C84.0195 11.252 84.3027 11.6484 84.498 12.1602C84.6934 12.668 84.791 13.2637 84.791 13.9473V14.0703C84.791 14.6797 84.6914 15.2129 84.4922 15.6699C84.2969 16.127 84.0156 16.4844 83.6484 16.7422C83.2812 16.9961 82.8398 17.123 82.3242 17.123C81.9336 17.123 81.5898 17.0586 81.293 16.9297C81 16.7969 80.75 16.6016 80.543 16.3438V18.5293L81.5508 18.6934V19.4375H78.4922ZM81.9668 16.2207C82.5137 16.2207 82.9277 16.0215 83.209 15.623C83.4902 15.2246 83.6309 14.707 83.6309 14.0703V13.9473C83.6309 13.4629 83.5684 13.0371 83.4434 12.6699C83.3184 12.2988 83.1309 12.0078 82.8809 11.7969C82.6348 11.5859 82.3262 11.4805 81.9551 11.4805C81.627 11.4805 81.3457 11.5547 81.1113 11.7031C80.877 11.8516 80.6875 12.0547 80.543 12.3125V15.4004C80.6875 15.6621 80.875 15.8652 81.1055 16.0098C81.3398 16.1504 81.627 16.2207 81.9668 16.2207ZM89.0332 17.123C88.4473 17.123 87.9414 16.9863 87.5156 16.7129C87.0938 16.4355 86.7676 16.0547 86.5371 15.5703C86.3066 15.082 86.1914 14.5254 86.1914 13.9004V13.7715C86.1914 13.1465 86.3066 12.5918 86.5371 12.1074C86.7676 11.6191 87.0938 11.2363 87.5156 10.959C87.9414 10.6816 88.4434 10.543 89.0215 10.543C89.6074 10.543 90.1113 10.6816 90.5332 10.959C90.959 11.2363 91.2871 11.6172 91.5176 12.1016C91.748 12.5859 91.8633 13.1426 91.8633 13.7715V13.9004C91.8633 14.5293 91.748 15.0879 91.5176 15.5762C91.2871 16.0605 90.9609 16.4395 90.5391 16.7129C90.1172 16.9863 89.6152 17.123 89.0332 17.123ZM89.0332 16.2207C89.4004 16.2207 89.707 16.1211 89.9531 15.9219C90.2031 15.7188 90.3906 15.4434 90.5156 15.0957C90.6445 14.7441 90.709 14.3457 90.709 13.9004V13.7715C90.709 13.3262 90.6445 12.9297 90.5156 12.582C90.3906 12.2305 90.2031 11.9551 89.9531 11.7559C89.7031 11.5527 89.3926 11.4512 89.0215 11.4512C88.6543 11.4512 88.3457 11.5527 88.0957 11.7559C87.8457 11.9551 87.6582 12.2305 87.5332 12.582C87.4082 12.9297 87.3457 13.3262 87.3457 13.7715V13.9004C87.3457 14.3457 87.4082 14.7441 87.5332 15.0957C87.6582 15.4434 87.8457 15.7188 88.0957 15.9219C88.3496 16.1211 88.6621 16.2207 89.0332 16.2207ZM95.9297 17.123C95.3477 17.123 94.8438 16.9922 94.418 16.7305C93.9961 16.4648 93.6699 16.0996 93.4395 15.6348C93.209 15.166 93.0938 14.6289 93.0938 14.0234V13.2031C93.0938 12.3711 93.2109 11.6504 93.4453 11.041C93.6836 10.4316 94.0195 9.94141 94.4531 9.57031C94.8867 9.19922 95.3984 8.95508 95.9883 8.83789C96.4805 8.74805 96.8359 8.64062 97.0547 8.51562C97.2773 8.39062 97.3887 8.18555 97.3887 7.90039H98.2793L98.291 7.93555C98.2988 8.2793 98.2617 8.55859 98.1797 8.77344C98.1016 8.98828 97.9766 9.16016 97.8047 9.28906C97.6328 9.41797 97.4141 9.51953 97.1484 9.59375C96.8828 9.66797 96.5684 9.73633 96.2051 9.79883C95.8496 9.85742 95.5254 9.96875 95.2324 10.1328C94.9434 10.293 94.7031 10.5137 94.5117 10.7949C94.3242 11.0723 94.2012 11.418 94.1426 11.832L94.166 11.8613C94.3965 11.6152 94.6855 11.4141 95.0332 11.2578C95.3848 11.1016 95.7578 11.0234 96.1523 11.0234C96.6875 11.0234 97.1504 11.1465 97.541 11.3926C97.9316 11.6387 98.2324 11.9785 98.4434 12.4121C98.6582 12.8418 98.7656 13.3359 98.7656 13.8945V14.0234C98.7656 14.6289 98.6504 15.166 98.4199 15.6348C98.1895 16.0996 97.8613 16.4648 97.4355 16.7305C97.0137 16.9922 96.5117 17.123 95.9297 17.123ZM95.9297 16.2207C96.2969 16.2207 96.6055 16.127 96.8555 15.9395C97.1055 15.748 97.293 15.4883 97.418 15.1602C97.5469 14.8281 97.6113 14.4492 97.6113 14.0234V13.8945C97.6113 13.5195 97.5469 13.1836 97.418 12.8867C97.2891 12.5898 97.0996 12.3555 96.8496 12.1836C96.5996 12.0117 96.2891 11.9258 95.918 11.9258C95.5508 11.9258 95.2422 12.0117 94.9922 12.1836C94.7461 12.3555 94.5605 12.5898 94.4355 12.8867C94.3105 13.1836 94.248 13.5195 94.248 13.8945V14.0234C94.248 14.4492 94.3105 14.8281 94.4355 15.1602C94.5605 15.4883 94.748 15.748 94.998 15.9395C95.248 16.127 95.5586 16.2207 95.9297 16.2207ZM101.115 19.5605C101.025 19.5605 100.908 19.5488 100.764 19.5254C100.619 19.5059 100.508 19.4863 100.43 19.4668L100.547 18.5586C100.613 18.5664 100.705 18.5723 100.822 18.5762C100.939 18.584 101.02 18.5879 101.062 18.5879C101.309 18.5879 101.508 18.4941 101.66 18.3066C101.816 18.1191 101.961 17.8633 102.094 17.5391L102.369 16.8711L100.125 11.498L99.4453 11.4043V10.6602H102.105V11.4043L101.338 11.5215L102.574 14.6914L102.873 15.5176H102.908L104.373 11.5215L103.564 11.4043V10.6602H106.172V11.4043L105.516 11.498L103.02 17.9727C102.902 18.2773 102.76 18.5488 102.592 18.7871C102.428 19.0293 102.225 19.2188 101.982 19.3555C101.744 19.4922 101.455 19.5605 101.115 19.5605ZM109.529 17.123C108.943 17.123 108.434 16.9902 108 16.7246C107.566 16.4551 107.23 16.082 106.992 15.6055C106.758 15.1289 106.641 14.5781 106.641 13.9531V13.6953C106.641 13.0938 106.764 12.5566 107.01 12.084C107.26 11.6074 107.59 11.2324 108 10.959C108.414 10.6816 108.865 10.543 109.354 10.543C109.924 10.543 110.4 10.6602 110.783 10.8945C111.17 11.1289 111.461 11.459 111.656 11.8848C111.852 12.3066 111.949 12.8047 111.949 13.3789V14.0996H107.836L107.818 14.1289C107.826 14.5352 107.896 14.8965 108.029 15.2129C108.166 15.5254 108.361 15.7715 108.615 15.9512C108.869 16.1309 109.174 16.2207 109.529 16.2207C109.92 16.2207 110.262 16.166 110.555 16.0566C110.852 15.9434 111.107 15.7891 111.322 15.5938L111.773 16.3438C111.547 16.5625 111.246 16.748 110.871 16.9004C110.5 17.0488 110.053 17.123 109.529 17.123ZM107.871 13.1973H110.795V13.0449C110.795 12.7402 110.74 12.4688 110.631 12.2305C110.525 11.9883 110.365 11.7988 110.15 11.6621C109.939 11.5215 109.674 11.4512 109.354 11.4512C109.096 11.4512 108.861 11.5273 108.65 11.6797C108.439 11.8281 108.266 12.0312 108.129 12.2891C107.992 12.5469 107.902 12.8398 107.859 13.168L107.871 13.1973ZM112.986 17V16.2617L113.941 16.0977V11.5684L112.986 11.4043V10.6602H113.941H115.43L117.492 15.4883H117.527L119.596 10.6602H121.043H121.998V11.4043L121.043 11.5684V16.0977L121.998 16.2617V17H118.934V16.2617L119.889 16.0977V12.5996L119.854 12.5879L117.908 17H117.111L115.131 12.4941L115.096 12.5059V16.0977L116.051 16.2617V17H112.986ZM73.3301 29.123C72.4746 29.123 71.7598 28.9355 71.1855 28.5605C70.6152 28.1855 70.1855 27.6719 69.8965 27.0195C69.6113 26.3672 69.4688 25.627 69.4688 24.7988V24.6758C69.4688 23.8398 69.6191 23.0977 69.9199 22.4492C70.2207 21.7969 70.6523 21.2832 71.2148 20.9082C71.7773 20.5332 72.4492 20.3457 73.2305 20.3457C73.7812 20.3457 74.2852 20.4316 74.7422 20.6035C75.1992 20.7754 75.5781 20.9941 75.8789 21.2598V23.0996H74.959L74.8359 21.752C74.7109 21.6543 74.5664 21.5723 74.4023 21.5059C74.2422 21.4395 74.0625 21.3887 73.8633 21.3535C73.668 21.3184 73.4551 21.3008 73.2246 21.3008C72.666 21.3008 72.1934 21.4453 71.8066 21.7344C71.4199 22.0195 71.127 22.4141 70.9277 22.918C70.7285 23.4219 70.6289 24.0039 70.6289 24.6641V24.7988C70.6289 25.5137 70.7344 26.125 70.9453 26.6328C71.1602 27.1367 71.4707 27.5215 71.877 27.7871C72.2871 28.0527 72.7852 28.1855 73.3711 28.1855C73.6445 28.1855 73.9121 28.1523 74.1738 28.0859C74.4355 28.0195 74.6523 27.9336 74.8242 27.8281L74.9531 26.6387H75.8555V28.4902C75.5352 28.6895 75.1523 28.8457 74.707 28.959C74.2617 29.0684 73.8027 29.123 73.3301 29.123ZM77.3145 29V28.2617L78.2695 28.0977V23.5684L77.3145 23.4043V22.6602H78.2695H80.7656C81.6016 22.6602 82.25 22.8066 82.7109 23.0996C83.1719 23.3887 83.4023 23.8242 83.4023 24.4062C83.4023 24.7031 83.3125 24.9688 83.1328 25.2031C82.9531 25.4336 82.6992 25.6094 82.3711 25.7305C82.7656 25.8281 83.0742 26.0117 83.2969 26.2812C83.5195 26.5469 83.6309 26.8516 83.6309 27.1953C83.6309 27.7891 83.4141 28.2383 82.9805 28.543C82.5508 28.8477 81.9473 29 81.1699 29H77.3145ZM79.4238 28.1094H81.1699C81.5996 28.1094 81.9238 28.0293 82.1426 27.8691C82.3613 27.7051 82.4707 27.4707 82.4707 27.166C82.4707 26.8652 82.3613 26.6328 82.1426 26.4688C81.9238 26.3047 81.5996 26.2227 81.1699 26.2227H79.4238V28.1094ZM79.4238 25.3379H80.7715C81.2598 25.3379 81.627 25.2656 81.873 25.1211C82.123 24.9766 82.248 24.7578 82.248 24.4648C82.248 23.8594 81.7539 23.5566 80.7656 23.5566H79.4238V25.3379ZM86.6836 29.123C86.0234 29.123 85.5215 28.9629 85.1777 28.6426C84.834 28.3184 84.6621 27.8633 84.6621 27.2773C84.6621 26.875 84.7715 26.5254 84.9902 26.2285C85.2129 25.9277 85.5332 25.6953 85.9512 25.5312C86.3691 25.3633 86.8691 25.2793 87.4512 25.2793H88.582V24.6582C88.582 24.2754 88.4648 23.9785 88.2305 23.7676C88 23.5566 87.6738 23.4512 87.252 23.4512C86.9863 23.4512 86.7559 23.4844 86.5605 23.5508C86.3652 23.6133 86.1875 23.7012 86.0273 23.8145L85.9043 24.6992H85.0137V23.2461C85.2988 23.0156 85.6309 22.8418 86.0098 22.7246C86.3887 22.6035 86.8086 22.543 87.2695 22.543C88.0391 22.543 88.6426 22.7266 89.0801 23.0938C89.5176 23.4609 89.7363 23.9863 89.7363 24.6699V27.7227C89.7363 27.8047 89.7363 27.8848 89.7363 27.9629C89.7402 28.041 89.7461 28.1191 89.7539 28.1973L90.3691 28.2617V29H88.7109C88.6758 28.8281 88.6484 28.6738 88.6289 28.5371C88.6094 28.4004 88.5957 28.2637 88.5879 28.127C88.3652 28.4121 88.0859 28.6504 87.75 28.8418C87.418 29.0293 87.0625 29.123 86.6836 29.123ZM86.8535 28.1562C87.2363 28.1562 87.5859 28.0645 87.9023 27.8809C88.2188 27.6973 88.4453 27.4766 88.582 27.2188V26.0703H87.4102C86.8789 26.0703 86.4805 26.1973 86.2148 26.4512C85.9492 26.7051 85.8164 26.9883 85.8164 27.3008C85.8164 27.5781 85.9023 27.791 86.0742 27.9395C86.2461 28.084 86.5059 28.1562 86.8535 28.1562ZM91.2129 29V28.2617L92.0449 28.1387L93.1289 26.3691C92.7266 26.2246 92.416 25.9961 92.1973 25.6836C91.9824 25.3711 91.875 25.0098 91.875 24.5996C91.875 24.2207 91.9727 23.8848 92.168 23.5918C92.3633 23.2988 92.6426 23.0703 93.0059 22.9062C93.3691 22.7422 93.8027 22.6602 94.3066 22.6602H97.9395V23.4043L96.9844 23.5684V28.0977L97.9395 28.2617V29H94.875V28.2617L95.8301 28.0977V26.5391H94.2656L92.7656 29H91.2129ZM94.1895 25.6309H95.8301V23.5566H94.3066C93.8887 23.5566 93.5723 23.6621 93.3574 23.873C93.1426 24.0801 93.0352 24.3262 93.0352 24.6113C93.0352 24.8926 93.1309 25.1328 93.3223 25.332C93.5176 25.5312 93.8066 25.6309 94.1895 25.6309ZM100.371 29V28.2617L101.326 28.0977V23.5566H99.9902L99.9023 24.5469H98.918V22.6602H104.918V24.5469H103.928L103.84 23.5566H102.48V28.0977L103.436 28.2617V29H100.371ZM109.658 24.8398C110.408 24.8398 110.992 25.0312 111.41 25.4141C111.828 25.793 112.037 26.2871 112.037 26.8965C112.037 27.5098 111.826 28.0137 111.404 28.4082C110.986 28.8027 110.404 29 109.658 29H105.979V28.2617L106.934 28.0977V23.5684L105.979 23.4043V22.6602H109.043V23.4043L108.088 23.5684V24.8398H109.658ZM109.658 28.0977C110.076 28.0977 110.383 27.9883 110.578 27.7695C110.777 27.5469 110.877 27.2695 110.877 26.9375C110.877 26.6172 110.777 26.3379 110.578 26.0996C110.379 25.8613 110.072 25.7422 109.658 25.7422H108.088V28.0977H109.658ZM69.4102 41V40.2617L70.043 40.1738L73.0254 32.4688H74.0156L76.9453 40.1738L77.5723 40.2617V41H75.123V40.2617L75.7676 40.1504L75.2051 38.5801H71.7891L71.209 40.1504L71.8535 40.2617V41H69.4102ZM72.1465 37.6133H74.8535L73.5996 34.1445L73.5293 33.9512H73.4941L73.4238 34.1445L72.1465 37.6133ZM78.5566 41V40.2617L79.5117 40.0977V35.5684L78.5566 35.4043V34.6602H81.6211V35.4043L80.666 35.5684V37.4023H83.4844V35.5684L82.5293 35.4043V34.6602H83.4844H84.6445H85.5996V35.4043L84.6445 35.5684V40.0977L85.5996 40.2617V41H82.5293V40.2617L83.4844 40.0977V38.3047H80.666V40.0977L81.6211 40.2617V41H78.5566ZM88.6523 41.123C87.9922 41.123 87.4902 40.9629 87.1465 40.6426C86.8027 40.3184 86.6309 39.8633 86.6309 39.2773C86.6309 38.875 86.7402 38.5254 86.959 38.2285C87.1816 37.9277 87.502 37.6953 87.9199 37.5312C88.3379 37.3633 88.8379 37.2793 89.4199 37.2793H90.5508V36.6582C90.5508 36.2754 90.4336 35.9785 90.1992 35.7676C89.9688 35.5566 89.6426 35.4512 89.2207 35.4512C88.9551 35.4512 88.7246 35.4844 88.5293 35.5508C88.334 35.6133 88.1562 35.7012 87.9961 35.8145L87.873 36.6992H86.9824V35.2461C87.2676 35.0156 87.5996 34.8418 87.9785 34.7246C88.3574 34.6035 88.7773 34.543 89.2383 34.543C90.0078 34.543 90.6113 34.7266 91.0488 35.0938C91.4863 35.4609 91.7051 35.9863 91.7051 36.6699V39.7227C91.7051 39.8047 91.7051 39.8848 91.7051 39.9629C91.709 40.041 91.7148 40.1191 91.7227 40.1973L92.3379 40.2617V41H90.6797C90.6445 40.8281 90.6172 40.6738 90.5977 40.5371C90.5781 40.4004 90.5645 40.2637 90.5566 40.127C90.334 40.4121 90.0547 40.6504 89.7188 40.8418C89.3867 41.0293 89.0312 41.123 88.6523 41.123ZM88.8223 40.1562C89.2051 40.1562 89.5547 40.0645 89.8711 39.8809C90.1875 39.6973 90.4141 39.4766 90.5508 39.2188V38.0703H89.3789C88.8477 38.0703 88.4492 38.1973 88.1836 38.4512C87.918 38.7051 87.7852 38.9883 87.7852 39.3008C87.7852 39.5781 87.8711 39.791 88.043 39.9395C88.2148 40.084 88.4746 40.1562 88.8223 40.1562ZM93.2051 41L93.2227 40.0156L93.4629 40.0098C93.7402 40.0098 93.959 39.9238 94.1191 39.752C94.2793 39.5762 94.3945 39.2949 94.4648 38.9082C94.5352 38.5176 94.5703 38.0039 94.5703 37.3672V35.5684L93.6152 35.4043V34.6602H99.0293H99.9844V35.4043L99.0293 35.5684V40.0977L99.9844 40.2617V41H96.9199V40.2617L97.875 40.0977V35.5742H95.7246V37.3672C95.7246 38.6172 95.5586 39.5352 95.2266 40.1211C94.8984 40.707 94.334 41 93.5332 41H93.2051ZM101.08 41V40.2617L102.035 40.0977V35.5684L101.08 35.4043V34.6602H103.184H104.139V35.4043L103.184 35.5684V39.1484L103.219 39.1602L106.014 34.6602H107.168H108.123V35.4043L107.168 35.5684V40.0977L108.123 40.2617V41H105.059V40.2617L106.014 40.0977V36.5117L105.979 36.5L103.184 41H101.08ZM110.602 41V40.2617L111.557 40.0977V35.5566H110.221L110.133 36.5469H109.148V34.6602H115.148V36.5469H114.158L114.07 35.5566H112.711V40.0977L113.666 40.2617V41H110.602ZM116.209 41V40.2617L117.164 40.0977V35.5684L116.209 35.4043V34.6602H118.312H119.268V35.4043L118.312 35.5684V39.1484L118.348 39.1602L121.143 34.6602H122.297H123.252V35.4043L122.297 35.5684V40.0977L123.252 40.2617V41H120.188V40.2617L121.143 40.0977V36.5117L121.107 36.5L118.312 41H116.209ZM124.389 41V40.2617L125.344 40.0977V35.5684L124.389 35.4043V34.6602H127.453V35.4043L126.498 35.5684V37.3379H127.107L128.432 35.5625C128.67 35.2305 128.902 34.9785 129.129 34.8066C129.359 34.6348 129.617 34.5488 129.902 34.5488C130.082 34.5488 130.23 34.5723 130.348 34.6191C130.465 34.6621 130.598 34.7305 130.746 34.8242L130.582 35.6094C130.414 35.582 130.316 35.5664 130.289 35.5625C130.266 35.5586 130.215 35.5566 130.137 35.5566C129.992 35.5566 129.85 35.6094 129.709 35.7148C129.572 35.8203 129.451 35.9453 129.346 36.0898L128.121 37.6777L130.119 40.1152L130.934 40.2617V41H129.393L127.248 38.3105H126.498V40.0977L127.453 40.2617V41H124.389ZM133.037 43.5605C132.947 43.5605 132.83 43.5488 132.686 43.5254C132.541 43.5059 132.43 43.4863 132.352 43.4668L132.469 42.5586C132.535 42.5664 132.627 42.5723 132.744 42.5762C132.861 42.584 132.941 42.5879 132.984 42.5879C133.23 42.5879 133.43 42.4941 133.582 42.3066C133.738 42.1191 133.883 41.8633 134.016 41.5391L134.291 40.8711L132.047 35.498L131.367 35.4043V34.6602H134.027V35.4043L133.26 35.5215L134.496 38.6914L134.795 39.5176H134.83L136.295 35.5215L135.486 35.4043V34.6602H138.094V35.4043L137.438 35.498L134.941 41.9727C134.824 42.2773 134.682 42.5488 134.514 42.7871C134.35 43.0293 134.146 43.2188 133.904 43.3555C133.666 43.4922 133.377 43.5605 133.037 43.5605ZM69.5684 53V52.2617L70.5234 52.0977V47.5684L69.5684 47.4043V46.6602H76.6113V47.4043L75.6562 47.5684V52.0977L76.6113 52.2617V53H73.5469V52.2617L74.502 52.0977V47.5742H71.6777V52.0977L72.6328 52.2617V53H69.5684ZM80.4785 53.123C79.8926 53.123 79.3867 52.9863 78.9609 52.7129C78.5391 52.4355 78.2129 52.0547 77.9824 51.5703C77.752 51.082 77.6367 50.5254 77.6367 49.9004V49.7715C77.6367 49.1465 77.752 48.5918 77.9824 48.1074C78.2129 47.6191 78.5391 47.2363 78.9609 46.959C79.3867 46.6816 79.8887 46.543 80.4668 46.543C81.0527 46.543 81.5566 46.6816 81.9785 46.959C82.4043 47.2363 82.7324 47.6172 82.9629 48.1016C83.1934 48.5859 83.3086 49.1426 83.3086 49.7715V49.9004C83.3086 50.5293 83.1934 51.0879 82.9629 51.5762C82.7324 52.0605 82.4062 52.4395 81.9844 52.7129C81.5625 52.9863 81.0605 53.123 80.4785 53.123ZM80.4785 52.2207C80.8457 52.2207 81.1523 52.1211 81.3984 51.9219C81.6484 51.7188 81.8359 51.4434 81.9609 51.0957C82.0898 50.7441 82.1543 50.3457 82.1543 49.9004V49.7715C82.1543 49.3262 82.0898 48.9297 81.9609 48.582C81.8359 48.2305 81.6484 47.9551 81.3984 47.7559C81.1484 47.5527 80.8379 47.4512 80.4668 47.4512C80.0996 47.4512 79.791 47.5527 79.541 47.7559C79.291 47.9551 79.1035 48.2305 78.9785 48.582C78.8535 48.9297 78.791 49.3262 78.791 49.7715V49.9004C78.791 50.3457 78.8535 50.7441 78.9785 51.0957C79.1035 51.4434 79.291 51.7188 79.541 51.9219C79.7949 52.1211 80.1074 52.2207 80.4785 52.2207ZM87.2402 53V52.0977H87.4746C87.7402 52.0977 87.9629 52.0352 88.1426 51.9102C88.3262 51.7812 88.4746 51.5762 88.5879 51.2949C88.7051 51.0098 88.7969 50.6387 88.8633 50.1816C88.9297 49.7207 88.9766 49.1562 89.0039 48.4883L89.1445 45.3711L88.2305 45.2129V44.4688H95.3496V45.2129L94.3945 45.377V52.0977L95.3496 52.2617V53H92.2852V52.2617L93.2402 52.0977V45.377H90.293L90.1523 48.4883C90.1172 49.2891 90.0469 49.9746 89.9414 50.5449C89.8359 51.1152 89.6816 51.582 89.4785 51.9453C89.2793 52.3086 89.0215 52.5762 88.7051 52.748C88.3887 52.916 88.002 53 87.5449 53H87.2402ZM96.334 53V52.2617L97.2891 52.0977V47.5684L96.334 47.4043V46.6602H98.4375H99.3926V47.4043L98.4375 47.5684V51.1484L98.4727 51.1602L101.268 46.6602H102.422H103.377V47.4043L102.422 47.5684V52.0977L103.377 52.2617V53H100.312V52.2617L101.268 52.0977V48.5117L101.232 48.5L98.4375 53H96.334ZM104.443 54.8633L104.332 52.0977H104.83C104.994 51.9102 105.137 51.7246 105.258 51.541C105.379 51.3535 105.484 51.1484 105.574 50.9258C105.664 50.6992 105.736 50.4355 105.791 50.1348C105.85 49.8301 105.893 49.4668 105.92 49.0449L105.979 47.5625L105.059 47.4043V46.6602H110.156H111.111V47.4043L110.156 47.5684V52.0977H111L110.883 54.8633H109.846V53H105.48V54.8633H104.443ZM106.16 52.0977H109.002V47.6855H107.127L107.074 49.0449C107.031 49.748 106.93 50.3477 106.77 50.8438C106.613 51.3398 106.41 51.7578 106.16 52.0977ZM114.908 53.123C114.322 53.123 113.812 52.9902 113.379 52.7246C112.945 52.4551 112.609 52.082 112.371 51.6055C112.137 51.1289 112.02 50.5781 112.02 49.9531V49.6953C112.02 49.0938 112.143 48.5566 112.389 48.084C112.639 47.6074 112.969 47.2324 113.379 46.959C113.793 46.6816 114.244 46.543 114.732 46.543C115.303 46.543 115.779 46.6602 116.162 46.8945C116.549 47.1289 116.84 47.459 117.035 47.8848C117.23 48.3066 117.328 48.8047 117.328 49.3789V50.0996H113.215L113.197 50.1289C113.205 50.5352 113.275 50.8965 113.408 51.2129C113.545 51.5254 113.74 51.7715 113.994 51.9512C114.248 52.1309 114.553 52.2207 114.908 52.2207C115.299 52.2207 115.641 52.166 115.934 52.0566C116.23 51.9434 116.486 51.7891 116.701 51.5938L117.152 52.3438C116.926 52.5625 116.625 52.748 116.25 52.9004C115.879 53.0488 115.432 53.123 114.908 53.123ZM113.25 49.1973H116.174V49.0449C116.174 48.7402 116.119 48.4688 116.01 48.2305C115.904 47.9883 115.744 47.7988 115.529 47.6621C115.318 47.5215 115.053 47.4512 114.732 47.4512C114.475 47.4512 114.24 47.5273 114.029 47.6797C113.818 47.8281 113.645 48.0312 113.508 48.2891C113.371 48.5469 113.281 48.8398 113.238 49.168L113.25 49.1973ZM118.055 55.4375V54.6934L118.951 54.5293V47.5684L117.996 47.4043V46.6602H119.941L120.047 47.4336C120.258 47.1445 120.514 46.9238 120.814 46.7715C121.119 46.6191 121.471 46.543 121.869 46.543C122.393 46.543 122.84 46.6855 123.211 46.9707C123.582 47.252 123.865 47.6484 124.061 48.1602C124.256 48.668 124.354 49.2637 124.354 49.9473V50.0703C124.354 50.6797 124.254 51.2129 124.055 51.6699C123.859 52.127 123.578 52.4844 123.211 52.7422C122.844 52.9961 122.402 53.123 121.887 53.123C121.496 53.123 121.152 53.0586 120.855 52.9297C120.562 52.7969 120.312 52.6016 120.105 52.3438V54.5293L121.113 54.6934V55.4375H118.055ZM121.529 52.2207C122.076 52.2207 122.49 52.0215 122.771 51.623C123.053 51.2246 123.193 50.707 123.193 50.0703V49.9473C123.193 49.4629 123.131 49.0371 123.006 48.6699C122.881 48.2988 122.693 48.0078 122.443 47.7969C122.197 47.5859 121.889 47.4805 121.518 47.4805C121.189 47.4805 120.908 47.5547 120.674 47.7031C120.439 47.8516 120.25 48.0547 120.105 48.3125V51.4004C120.25 51.6621 120.438 51.8652 120.668 52.0098C120.902 52.1504 121.189 52.2207 121.529 52.2207ZM127.547 53.123C126.887 53.123 126.385 52.9629 126.041 52.6426C125.697 52.3184 125.525 51.8633 125.525 51.2773C125.525 50.875 125.635 50.5254 125.854 50.2285C126.076 49.9277 126.396 49.6953 126.814 49.5312C127.232 49.3633 127.732 49.2793 128.314 49.2793H129.445V48.6582C129.445 48.2754 129.328 47.9785 129.094 47.7676C128.863 47.5566 128.537 47.4512 128.115 47.4512C127.85 47.4512 127.619 47.4844 127.424 47.5508C127.229 47.6133 127.051 47.7012 126.891 47.8145L126.768 48.6992H125.877V47.2461C126.162 47.0156 126.494 46.8418 126.873 46.7246C127.252 46.6035 127.672 46.543 128.133 46.543C128.902 46.543 129.506 46.7266 129.943 47.0938C130.381 47.4609 130.6 47.9863 130.6 48.6699V51.7227C130.6 51.8047 130.6 51.8848 130.6 51.9629C130.604 52.041 130.609 52.1191 130.617 52.1973L131.232 52.2617V53H129.574C129.539 52.8281 129.512 52.6738 129.492 52.5371C129.473 52.4004 129.459 52.2637 129.451 52.127C129.229 52.4121 128.949 52.6504 128.613 52.8418C128.281 53.0293 127.926 53.123 127.547 53.123ZM127.717 52.1562C128.1 52.1562 128.449 52.0645 128.766 51.8809C129.082 51.6973 129.309 51.4766 129.445 51.2188V50.0703H128.273C127.742 50.0703 127.344 50.1973 127.078 50.4512C126.812 50.7051 126.68 50.9883 126.68 51.3008C126.68 51.5781 126.766 51.791 126.938 51.9395C127.109 52.084 127.369 52.1562 127.717 52.1562ZM132.264 53V52.2617L133.219 52.0977V47.5684L132.264 47.4043V46.6602H133.219H134.707L136.77 51.4883H136.805L138.873 46.6602H140.32H141.275V47.4043L140.32 47.5684V52.0977L141.275 52.2617V53H138.211V52.2617L139.166 52.0977V48.5996L139.131 48.5879L137.186 53H136.389L134.408 48.4941L134.373 48.5059V52.0977L135.328 52.2617V53H132.264Z" fill="url(#paint0_linear_223_148)"/>
<path fill-rule="evenodd" clip-rule="evenodd" d="M51.7195 14.983C52.0752 14.6256 52.6518 14.6256 53.0075 14.983C53.3632 15.3403 53.3632 15.9197 53.0075 16.277C52.6518 16.6344 52.0752 16.6344 51.7195 16.277C51.3638 15.9197 51.3638 15.3403 51.7195 14.983ZM50.8608 14.1203C51.6907 13.2865 53.0363 13.2865 53.8662 14.1203C54.6961 14.9541 54.6961 16.3059 53.8662 17.1398C53.2028 17.8063 52.2099 17.94 51.4143 17.5409L39.8428 28.1663L39.8427 28.1661V28.1663H36.9586V26.9462H39.3733L50.5267 16.7048C50.0521 15.8873 50.1635 14.8209 50.8608 14.1203ZM35.6636 17.9492L31.143 21.0924V24.2011H29.9287V20.5409H29.9287L31.5486 19.395L31.2081 19.0362C30.4034 19.4712 29.3785 19.3474 28.6991 18.6648C27.8692 17.831 27.8692 16.4792 28.6991 15.6454C29.529 14.8115 30.8745 14.8115 31.7044 15.6454C32.3836 16.3277 32.507 17.3571 32.0745 18.1655L32.5918 18.6571L34.9477 16.9906C34.6643 16.2308 34.8268 15.3414 35.435 14.7303C36.2649 13.8965 37.6105 13.8965 38.4404 14.7303C39.2703 15.5641 39.2703 16.916 38.4404 17.7498C37.683 18.5107 36.4961 18.5772 35.6636 17.9492ZM28.1072 22.676H27.5V24.2011H28.1072V22.676ZM32.9645 22.676H34.1789V24.2011H32.9645V22.676ZM36.9112 34.2665H39.3398L48.6869 31.8973C49.1659 32.6831 50.1182 33.0942 51.0492 32.8436C52.1829 32.5384 52.8557 31.3676 52.5519 30.2286C52.2482 29.0896 51.0829 28.4137 49.9492 28.7189C49.0205 28.9689 48.401 29.7999 48.3745 30.7184L39.1896 33.0465H36.9112V34.2665ZM36.9112 31.2164H39.3398L50.7268 24.7032C51.392 25.3365 52.4169 25.4854 53.251 25.0015C54.2674 24.412 54.6157 23.1061 54.0288 22.0849C53.442 21.0637 52.1423 20.7138 51.1259 21.3034C50.2926 21.7868 49.9084 22.7515 50.1204 23.6462L39.0184 29.9963H36.9112V31.2164ZM36.9112 36.0966H39.3398L46.2361 38.1292C46.7165 37.3482 47.6658 36.9405 48.5938 37.1903C49.7275 37.4955 50.4003 38.6663 50.0965 39.8053C49.7927 40.9443 48.6275 41.6202 47.4938 41.315C46.5621 41.0642 45.9417 40.2288 45.9188 39.3068L39.1666 37.3167H36.9112V36.0966ZM43.7571 43.4604L39.3398 39.1468H36.9112V40.3668H38.8471L42.8998 44.3244C42.4656 45.1332 42.5884 46.164 43.2684 46.8472C44.0983 47.681 45.4438 47.681 46.2737 46.8472C47.1036 46.0134 47.1036 44.6615 46.2737 43.8277C45.5922 43.143 44.563 43.0205 43.7571 43.4604ZM27.1964 43.112H28.1072V49.2646L31.0032 52.1743C31.8087 51.7363 32.8363 51.8592 33.517 52.5431C34.3469 53.3769 34.3469 54.7288 33.517 55.5626C32.6871 56.3964 31.3416 56.3964 30.5116 55.5626C29.8309 54.8787 29.7086 53.8462 30.1446 53.037L28.1072 50.99V55.0959C28.985 55.3584 29.6251 56.1754 29.6251 57.1426C29.6251 58.3218 28.6737 59.2777 27.5 59.2777V58.0577C28.003 58.0577 28.4108 57.648 28.4108 57.1426C28.4108 56.6373 28.003 56.2276 27.5 56.2276V55.3126H27.1964V43.112ZM31.143 43.112H29.9287V47.3822L35.3137 49.214C35.2539 50.0069 35.6393 50.8018 36.3706 51.226C37.387 51.8155 38.6867 51.4657 39.2735 50.4444C39.8603 49.4232 39.5121 48.1174 38.4957 47.5278C37.556 46.9828 36.3742 47.2406 35.7374 48.0896L31.143 46.4671L31.143 43.112ZM32.9645 43.112H34.1789V45.5521H32.9645V43.112ZM32.6583 53.4058C33.014 53.7632 33.014 54.3426 32.6583 54.6999C32.3026 55.0573 31.726 55.0573 31.3703 54.6999C31.0146 54.3426 31.0146 53.7632 31.3703 53.4058C31.726 53.0485 32.3026 53.0485 32.6583 53.4058ZM51.7331 22.36C52.1687 22.1074 52.7257 22.2573 52.9772 22.695C53.2287 23.1326 53.0794 23.6923 52.6438 23.9449C52.2082 24.1976 51.6512 24.0477 51.3997 23.61C51.1482 23.1724 51.2975 22.6127 51.7331 22.36ZM50.2635 29.8973C50.7494 29.7666 51.2488 30.0562 51.379 30.5444C51.5091 31.0325 51.2208 31.5343 50.7349 31.6651C50.2491 31.7959 49.7497 31.5062 49.6195 31.018C49.4893 30.5299 49.7776 30.0281 50.2635 29.8973ZM48.2795 38.3688C48.7654 38.4996 49.0537 39.0013 48.9235 39.4895C48.7934 39.9776 48.294 40.2673 47.8081 40.1365C47.3222 40.0057 47.0339 39.504 47.1641 39.0158C47.2943 38.5277 47.7937 38.238 48.2795 38.3688ZM45.4151 44.6904C45.7707 45.0477 45.7707 45.6271 45.4151 45.9845C45.0594 46.3418 44.4827 46.3418 44.127 45.9845C43.7714 45.6271 43.7714 45.0477 44.127 44.6904C44.4827 44.333 45.0594 44.333 45.4151 44.6904ZM37.8885 48.5844C38.3241 48.8371 38.4733 49.3968 38.2218 49.8344C37.9703 50.2721 37.4133 50.422 36.9777 50.1693C36.5421 49.9167 36.3929 49.357 36.6444 48.9194C36.8959 48.4817 37.4529 48.3318 37.8885 48.5844ZM36.2937 15.593C36.6494 15.2357 37.226 15.2357 37.5817 15.593C37.9374 15.9503 37.9374 16.5297 37.5817 16.8871C37.226 17.2444 36.6494 17.2444 36.2937 16.8871C35.938 16.5297 35.938 15.9503 36.2937 15.593ZM29.5578 17.8021C29.2021 17.4448 29.2021 16.8654 29.5578 16.5081C29.9134 16.1507 30.4901 16.1507 30.8458 16.5081C31.2014 16.8654 31.2014 17.4448 30.8458 17.8021C30.4901 18.1595 29.9134 18.1595 29.5578 17.8021Z" fill="url(#paint1_linear_223_148)"/>
<path fill-rule="evenodd" clip-rule="evenodd" d="M3.28051 14.983C2.92484 14.6256 2.34818 14.6256 1.9925 14.983C1.63683 15.3403 1.63683 15.9197 1.9925 16.277C2.34818 16.6344 2.92484 16.6344 3.28051 16.277C3.63618 15.9197 3.63618 15.3403 3.28051 14.983ZM4.13918 14.1203C3.30927 13.2865 1.96374 13.2865 1.13383 14.1203C0.303932 14.9541 0.303932 16.3059 1.13383 17.1398C1.79722 17.8063 2.79009 17.94 3.58569 17.5409L15.1572 28.1663L15.1573 28.1661V28.1663H18.0414V26.9462H15.6267L4.47331 16.7048C4.94791 15.8873 4.83653 14.8209 4.13918 14.1203ZM19.3364 17.9492L23.857 21.0924V24.2011H25.0713V20.5409H25.0713L23.4514 19.395L23.7919 19.0362C24.5966 19.4712 25.6215 19.3474 26.3009 18.6648C27.1308 17.831 27.1308 16.4792 26.3009 15.6454C25.471 14.8115 24.1255 14.8115 23.2956 15.6454C22.6164 16.3277 22.493 17.3571 22.9255 18.1655L22.4082 18.6571L20.0523 16.9906C20.3357 16.2308 20.1732 15.3414 19.565 14.7303C18.7351 13.8965 17.3895 13.8965 16.5596 14.7303C15.7297 15.5641 15.7297 16.916 16.5596 17.7498C17.317 18.5107 18.5039 18.5772 19.3364 17.9492ZM26.8928 22.676H27.5V24.2011H26.8928V22.676ZM22.0355 22.676H20.8211V24.2011H22.0355V22.676ZM18.0888 34.2665H15.6602L6.31306 31.8973C5.83408 32.6831 4.88176 33.0942 3.95075 32.8436C2.81708 32.5384 2.14431 31.3676 2.44808 30.2286C2.75184 29.0896 3.91712 28.4137 5.05079 28.7189C5.97955 28.9689 6.59896 29.7999 6.62552 30.7184L15.8104 33.0465H18.0888V34.2665ZM18.0888 31.2164H15.6602L4.27316 24.7032C3.60803 25.3365 2.58313 25.4854 1.749 25.0015C0.732582 24.412 0.384331 23.1061 0.971161 22.0849C1.55799 21.0637 2.85768 20.7138 3.8741 21.3034C4.70738 21.7868 5.09158 22.7515 4.87964 23.6462L15.9816 29.9963H18.0888V31.2164ZM18.0888 36.0966H15.6602L8.76394 38.1292C8.28351 37.3482 7.33425 36.9405 6.40617 37.1903C5.2725 37.4955 4.59973 38.6663 4.90349 39.8053C5.20726 40.9443 6.37253 41.6202 7.5062 41.315C8.43788 41.0642 9.05827 40.2288 9.08115 39.3068L15.8334 37.3167H18.0888V36.0966ZM11.2429 43.4604L15.6602 39.1468H18.0888V40.3668H16.1529L12.1002 44.3244C12.5344 45.1332 12.4116 46.164 11.7316 46.8472C10.9017 47.681 9.55618 47.681 8.72628 46.8472C7.89638 46.0134 7.89638 44.6615 8.72628 43.8277C9.40779 43.143 10.437 43.0205 11.2429 43.4604ZM27.8036 43.112H26.8928V49.2646L23.9968 52.1743C23.1913 51.7363 22.1637 51.8592 21.483 52.5431C20.6531 53.3769 20.6531 54.7288 21.483 55.5626C22.3129 56.3964 23.6584 56.3964 24.4884 55.5626C25.1691 54.8787 25.2914 53.8462 24.8554 53.037L26.8928 50.99V55.0959C26.015 55.3584 25.3749 56.1754 25.3749 57.1426C25.3749 58.3218 26.3263 59.2777 27.5 59.2777V58.0577C26.997 58.0577 26.5892 57.648 26.5892 57.1426C26.5892 56.6373 26.997 56.2276 27.5 56.2276V55.3126H27.8036V43.112ZM23.857 43.112H25.0713V47.3822L19.6863 49.214C19.7461 50.0069 19.3607 50.8018 18.6294 51.226C17.613 51.8155 16.3133 51.4657 15.7265 50.4444C15.1397 49.4232 15.4879 48.1174 16.5043 47.5278C17.444 46.9828 18.6258 47.2406 19.2626 48.0896L23.857 46.4671L23.857 43.112ZM22.0355 43.112H20.8211V45.5521H22.0355V43.112ZM22.3417 53.4058C21.986 53.7632 21.986 54.3426 22.3417 54.6999C22.6974 55.0573 23.274 55.0573 23.6297 54.6999C23.9854 54.3426 23.9854 53.7632 23.6297 53.4058C23.274 53.0485 22.6974 53.0485 22.3417 53.4058ZM3.26693 22.36C2.83132 22.1074 2.27431 22.2573 2.02281 22.695C1.77131 23.1326 1.92056 23.6923 2.35617 23.9449C2.79178 24.1976 3.34879 24.0477 3.60029 23.61C3.85179 23.1724 3.70254 22.6127 3.26693 22.36ZM4.73649 29.8973C4.25064 29.7666 3.75123 30.0562 3.62105 30.5444C3.49086 31.0325 3.77919 31.5343 4.26505 31.6651C4.75091 31.7959 5.25031 31.5062 5.3805 31.018C5.51068 30.5299 5.22235 30.0281 4.73649 29.8973ZM6.72046 38.3688C6.2346 38.4996 5.94627 39.0013 6.07646 39.4895C6.20664 39.9776 6.70605 40.2673 7.1919 40.1365C7.67776 40.0057 7.96609 39.504 7.83591 39.0158C7.70572 38.5277 7.20632 38.238 6.72046 38.3688ZM9.58495 44.6904C9.22928 45.0477 9.22928 45.6271 9.58495 45.9845C9.94062 46.3418 10.5173 46.3418 10.873 45.9845C11.2286 45.6271 11.2286 45.0477 10.873 44.6904C10.5173 44.333 9.94062 44.333 9.58495 44.6904ZM17.1115 48.5844C16.6759 48.8371 16.5267 49.3968 16.7782 49.8344C17.0297 50.2721 17.5867 50.422 18.0223 50.1693C18.4579 49.9167 18.6071 49.357 18.3556 48.9194C18.1041 48.4817 17.5471 48.3318 17.1115 48.5844ZM18.7063 15.593C18.3506 15.2357 17.774 15.2357 17.4183 15.593C17.0626 15.9503 17.0626 16.5297 17.4183 16.8871C17.774 17.2444 18.3506 17.2444 18.7063 16.8871C19.062 16.5297 19.062 15.9503 18.7063 15.593ZM25.4422 17.8021C25.7979 17.4448 25.7979 16.8654 25.4422 16.5081C25.0866 16.1507 24.5099 16.1507 24.1542 16.5081C23.7986 16.8654 23.7986 17.4448 24.1542 17.8021C24.5099 18.1595 25.0866 18.1595 25.4422 17.8021Z" fill="url(#paint2_linear_223_148)"/>
<path d="M17.9498 25.2023C17.9498 24.5638 18.465 24.0462 19.1005 24.0462H35.8996C36.5351 24.0462 37.0502 24.5638 37.0502 25.2023V42.0809C37.0502 42.7194 36.5351 43.237 35.8996 43.237H19.1005C18.465 43.237 17.9498 42.7194 17.9498 42.0809V25.2023Z" fill="#BBBBBB"/>
<path d="M19.2155 26.2428C19.2155 25.732 19.6276 25.3179 20.136 25.3179H34.864C35.3724 25.3179 35.7845 25.732 35.7845 26.2428V41.0405C35.7845 41.5512 35.3724 41.9653 34.864 41.9653H20.136C19.6276 41.9653 19.2155 41.5512 19.2155 41.0405V26.2428Z" fill="#CCCCCC"/>
<path fill-rule="evenodd" clip-rule="evenodd" d="M27.9698 39.3786C27.9698 39.5112 27.9935 39.6382 28.0368 39.7556C27.9939 39.8133 27.9515 39.8653 27.9099 39.9118C27.6778 40.1707 27.5504 40.1734 27.5383 40.1734C27.5262 40.1734 27.3988 40.1707 27.1667 39.9118C26.9348 39.6531 26.6798 39.2219 26.4451 38.6028C26.316 38.2622 26.1988 37.8804 26.097 37.4638C26.5649 37.2928 27.0477 37.0906 27.5383 36.8583C28.0289 37.0906 28.5117 37.2928 28.9796 37.4638C28.9028 37.7781 28.8172 38.0726 28.7244 38.3446C28.287 38.4828 27.9698 38.8935 27.9698 39.3786ZM27.5383 41.185C26.5351 41.185 25.6518 39.8305 25.137 37.7771C23.1097 38.3559 21.5006 38.2646 20.999 37.3916C20.4973 36.5187 21.2232 35.0729 22.7358 33.5983C22.5413 33.4087 22.3599 33.2196 22.1923 33.0321C21.898 33.1471 21.5562 33.1318 21.2615 32.9608C20.7455 32.6615 20.5687 31.9986 20.8666 31.4802C20.9112 31.4027 20.9639 31.3327 21.0229 31.2709C20.7958 30.7001 20.7746 30.1953 20.999 29.8049C21.5006 28.932 23.1097 28.8407 25.137 29.4195C25.6518 27.3661 26.5351 26.0116 27.5383 26.0116C28.5415 26.0116 29.4248 27.3661 29.9396 29.4195C30.2002 29.3451 30.4539 29.2817 30.6993 29.2297C30.7473 28.9161 30.9314 28.6264 31.2262 28.4554C31.7421 28.1561 32.4019 28.3337 32.6998 28.8521C32.7443 28.9297 32.7783 29.0105 32.802 29.0928C33.4076 29.1805 33.8534 29.4146 34.0777 29.8049C34.5793 30.6778 33.8534 32.1236 32.3408 33.5983C33.8534 35.0729 34.5793 36.5187 34.0777 37.3916C33.576 38.2646 31.9669 38.3559 29.9396 37.7771C29.8734 38.0411 29.8011 38.2935 29.7233 38.533C29.9695 38.7316 30.1272 39.0366 30.1272 39.3786C30.1272 39.9772 29.6442 40.4624 29.0485 40.4624C28.9594 40.4624 28.8728 40.4516 28.7899 40.4311C28.4115 40.9141 27.9869 41.185 27.5383 41.185ZM26.3874 36.2648C26.2206 36.3343 26.0558 36.3998 25.8933 36.461C25.8648 36.289 25.8388 36.1129 25.8154 35.933C25.8655 35.9632 25.9159 35.9932 25.9665 36.0231C25.9912 36.0377 26.0159 36.0522 26.0407 36.0667C26.0604 36.0782 26.0802 36.0898 26.1 36.1012C26.1959 36.1568 26.2916 36.2113 26.3874 36.2648ZM29.1833 36.461C29.0208 36.3998 28.856 36.3343 28.6893 36.2648C28.785 36.2113 28.8808 36.1568 28.9766 36.1012C29.0724 36.0457 29.1673 35.9896 29.2612 35.933C29.2519 36.0042 29.2423 36.0749 29.2322 36.1449C29.2168 36.2517 29.2005 36.3571 29.1833 36.461ZM28.4732 35.2252C28.7871 35.0431 29.0892 34.856 29.3783 34.6656C29.3978 34.3188 29.4081 33.9624 29.4081 33.5983C29.4081 33.2341 29.3978 32.8777 29.3783 32.5309C29.0892 32.3405 28.7871 32.1534 28.4732 31.9713C28.1593 31.7893 27.847 31.62 27.5383 31.4636C27.2296 31.62 26.9173 31.7893 26.6034 31.9713C26.2895 32.1534 25.9875 32.3405 25.6983 32.5309C25.6788 32.8777 25.6685 33.2341 25.6685 33.5983C25.6685 33.9624 25.6788 34.3188 25.6983 34.6656C25.9875 34.856 26.2895 35.0431 26.6034 35.2252C26.9173 35.4073 27.2296 35.5766 27.5383 35.733C27.847 35.5766 28.1593 35.4073 28.4732 35.2252ZM30.1495 36.7852C30.2361 36.2926 30.3033 35.7713 30.3483 35.2283C30.7938 34.9176 31.2096 34.5985 31.5909 34.2769C31.899 34.5738 32.1695 34.8666 32.3985 35.1493C32.8148 35.6631 33.059 36.1006 33.166 36.4317C33.2732 36.7631 33.2118 36.8753 33.2058 36.8858C33.1997 36.8964 33.1337 37.0059 32.7945 37.0784C32.4555 37.1508 31.9563 37.157 31.3053 37.0517C30.9472 36.9938 30.5595 36.9048 30.1495 36.7852ZM30.4122 33.9301C30.5555 33.8197 30.6943 33.709 30.8284 33.5983C30.6943 33.4875 30.5555 33.3768 30.4122 33.2665C30.414 33.3765 30.4149 33.4871 30.4149 33.5983C30.4149 33.7094 30.414 33.8201 30.4122 33.9301ZM32.3985 32.0472C32.1695 32.3299 31.899 32.6227 31.5909 32.9196C31.2096 32.598 30.7938 32.279 30.3483 31.9682C30.3032 31.4252 30.2361 30.904 30.1495 30.4114C30.4589 30.3211 30.7555 30.2483 31.0363 30.1931C31.3742 30.5045 31.8868 30.5752 32.3049 30.3326C32.4192 30.2664 32.5168 30.1823 32.5963 30.0858C32.6675 30.0943 32.7336 30.1052 32.7945 30.1182C33.1337 30.1907 33.1997 30.3001 33.2057 30.3107C33.2118 30.3213 33.2732 30.4334 33.166 30.7648C33.059 31.096 32.8148 31.5334 32.3985 32.0472ZM28.6315 28.5938C28.7606 28.9344 28.8778 29.3162 28.9796 29.7327C28.5117 29.9037 28.0289 30.1059 27.5383 30.3382C27.0477 30.1059 26.5649 29.9037 26.097 29.7327C26.1988 29.3162 26.316 28.9344 26.4451 28.5938C26.6798 27.9747 26.9348 27.5434 27.1667 27.2847C27.3988 27.0258 27.5262 27.0231 27.5383 27.0231C27.5504 27.0231 27.6778 27.0258 27.9099 27.2847C28.1418 27.5434 28.3968 27.9747 28.6315 28.5938ZM29.1833 30.7355C29.0208 30.7968 28.856 30.8622 28.6893 30.9318C28.785 30.9852 28.8808 31.0397 28.9766 31.0953C29.0724 31.1509 29.1673 31.207 29.2612 31.2635C29.2378 31.0837 29.2118 30.9075 29.1833 30.7355ZM25.8933 30.7355C26.0558 30.7968 26.2206 30.8622 26.3874 30.9318C26.2916 30.9852 26.1959 31.0397 26.1 31.0953C26.0042 31.1509 25.9093 31.207 25.8154 31.2636C25.8388 31.0837 25.8648 30.9075 25.8933 30.7355ZM24.9271 30.4113C24.8405 30.904 24.7733 31.4252 24.7283 31.9682C24.2828 32.279 23.8671 32.598 23.4857 32.9196C23.2533 32.6956 23.0422 32.4739 22.8542 32.2572C22.9537 31.8074 22.7583 31.3261 22.3402 31.0835C22.2259 31.0172 22.1046 30.9743 21.9817 30.9534C21.9534 30.8872 21.9298 30.8243 21.9106 30.7648C21.8034 30.4334 21.8648 30.3213 21.8709 30.3107C21.8769 30.3001 21.9429 30.1907 22.2822 30.1182C22.6211 30.0457 23.1203 30.0395 23.7713 30.1448C24.1294 30.2027 24.5171 30.2917 24.9271 30.4113ZM24.7283 35.2283C24.2828 34.9176 23.8671 34.5985 23.4857 34.2769C23.1776 34.5738 22.9071 34.8666 22.6781 35.1493C22.2618 35.6631 22.0176 36.1006 21.9106 36.4317C21.8035 36.7631 21.8648 36.8753 21.8709 36.8858C21.8769 36.8964 21.9429 37.0059 22.2822 37.0784C22.6211 37.1508 23.1203 37.157 23.7713 37.0517C24.1295 36.9938 24.5171 36.9048 24.9271 36.7852C24.8405 36.2926 24.7734 35.7713 24.7283 35.2283ZM24.6644 33.2665C24.5211 33.3768 24.3823 33.4875 24.2482 33.5983C24.3823 33.709 24.5211 33.8197 24.6644 33.9301C24.6626 33.8201 24.6617 33.7094 24.6617 33.5983C24.6617 33.4871 24.6626 33.3765 24.6644 33.2665ZM27.5 35.1445C28.3261 35.1445 28.9958 34.4716 28.9958 33.6416C28.9958 32.8116 28.3261 32.1387 27.5 32.1387C26.6739 32.1387 26.0042 32.8116 26.0042 33.6416C26.0042 34.4716 26.6739 35.1445 27.5 35.1445Z" fill="#848484"/>
<ellipse cx="21.5167" cy="10.6358" rx="2.87657" ry="2.89017" fill="#E11E1E"/>
<ellipse cx="21.5167" cy="10.6358" rx="2.87657" ry="2.89017" fill="url(#paint3_linear_223_148)"/>
<ellipse cx="21.5167" cy="10.6358" rx="2.45815" ry="2.46978" fill="url(#paint4_linear_223_148)"/>
<ellipse cx="34.2887" cy="10.6358" rx="2.87657" ry="2.89017" fill="#E11E1E"/>
<ellipse cx="34.2887" cy="10.6358" rx="2.87657" ry="2.89017" fill="url(#paint5_linear_223_148)"/>
<ellipse cx="34.2887" cy="10.6358" rx="2.45816" ry="2.46978" fill="url(#paint6_linear_223_148)"/>
<ellipse cx="27.5" cy="4.04615" rx="4.02719" ry="4.04615" fill="#36CE29"/>
<ellipse cx="27.5" cy="4.04615" rx="4.02719" ry="4.04615" fill="url(#paint7_linear_223_148)"/>
<ellipse cx="27.5" cy="4.04615" rx="3.44142" ry="3.45762" fill="url(#paint8_linear_223_148)"/>
<defs>
<linearGradient id="paint0_linear_223_148" x1="105.5" y1="6" x2="105.5" y2="54" gradientUnits="userSpaceOnUse">
<stop stop-color="#E8D9B4"/>
<stop offset="1" stop-color="#CFB575"/>
</linearGradient>
<linearGradient id="paint1_linear_223_148" x1="40.8425" y1="13.4949" x2="40.8425" y2="59.2777" gradientUnits="userSpaceOnUse">
<stop stop-color="#E8D9B4"/>
<stop offset="1" stop-color="#CFB575"/>
</linearGradient>
<linearGradient id="paint2_linear_223_148" x1="14.1575" y1="13.4949" x2="14.1575" y2="59.2777" gradientUnits="userSpaceOnUse">
<stop stop-color="#E8D9B4"/>
<stop offset="1" stop-color="#CFB575"/>
</linearGradient>
<linearGradient id="paint3_linear_223_148" x1="21.5167" y1="7.74566" x2="21.5167" y2="13.526" gradientUnits="userSpaceOnUse">
<stop stop-color="white" stop-opacity="0.5"/>
<stop offset="1" stop-color="white" stop-opacity="0"/>
</linearGradient>
<linearGradient id="paint4_linear_223_148" x1="21.5167" y1="8.16606" x2="21.5167" y2="13.1056" gradientUnits="userSpaceOnUse">
<stop stop-color="white"/>
<stop offset="1" stop-color="white" stop-opacity="0"/>
</linearGradient>
<linearGradient id="paint5_linear_223_148" x1="34.2887" y1="7.74566" x2="34.2887" y2="13.526" gradientUnits="userSpaceOnUse">
<stop stop-color="white" stop-opacity="0.5"/>
<stop offset="1" stop-color="white" stop-opacity="0"/>
</linearGradient>
<linearGradient id="paint6_linear_223_148" x1="34.2887" y1="8.16606" x2="34.2887" y2="13.1056" gradientUnits="userSpaceOnUse">
<stop stop-color="white"/>
<stop offset="1" stop-color="white" stop-opacity="0"/>
</linearGradient>
<linearGradient id="paint7_linear_223_148" x1="27.5" y1="0" x2="27.5" y2="8.0923" gradientUnits="userSpaceOnUse">
<stop stop-color="white" stop-opacity="0.5"/>
<stop offset="1" stop-color="white" stop-opacity="0"/>
</linearGradient>
<linearGradient id="paint8_linear_223_148" x1="27.5" y1="0.588535" x2="27.5" y2="7.50377" gradientUnits="userSpaceOnUse">
<stop stop-color="white"/>
<stop offset="1" stop-color="white" stop-opacity="0"/>
</linearGradient>
</defs>
</svg>
