<svg width="335" height="60" viewBox="0 0 335 60" fill="none" xmlns="http://www.w3.org/2000/svg">
<path d="M69.6768 26V24.8926L71.1094 24.6465V14.5654L69.6768 14.3193V13.2031H82.2275V14.3193L80.7949 14.5654V24.6465L82.2275 24.8926V26H77.6309V24.8926L79.0635 24.6465V14.5654H72.8408V24.6465L74.2734 24.8926V26H69.6768ZM83.2383 29.6562V28.54L84.583 28.2939V17.8525L83.1504 17.6064V16.4902H86.0684L86.2266 17.6504C86.543 17.2168 86.9268 16.8857 87.3779 16.6572C87.835 16.4287 88.3623 16.3145 88.96 16.3145C89.7451 16.3145 90.416 16.5283 90.9727 16.9561C91.5293 17.3779 91.9541 17.9727 92.2471 18.7402C92.54 19.502 92.6865 20.3955 92.6865 21.4209V21.6055C92.6865 22.5195 92.5371 23.3193 92.2383 24.0049C91.9453 24.6904 91.5234 25.2266 90.9727 25.6133C90.4219 25.9941 89.7598 26.1846 88.9863 26.1846C88.4004 26.1846 87.8848 26.0879 87.4395 25.8945C87 25.6953 86.625 25.4023 86.3145 25.0156V28.2939L87.8262 28.54V29.6562H83.2383ZM88.4502 24.8311C89.2705 24.8311 89.8916 24.5322 90.3135 23.9346C90.7354 23.3369 90.9463 22.5605 90.9463 21.6055V21.4209C90.9463 20.6943 90.8525 20.0557 90.665 19.5049C90.4775 18.9482 90.1963 18.5117 89.8213 18.1953C89.4521 17.8789 88.9893 17.7207 88.4326 17.7207C87.9404 17.7207 87.5186 17.832 87.167 18.0547C86.8154 18.2773 86.5312 18.582 86.3145 18.9688V23.6006C86.5312 23.9932 86.8125 24.2979 87.1582 24.5146C87.5098 24.7256 87.9404 24.8311 88.4502 24.8311ZM99.0498 26.1846C98.1709 26.1846 97.4121 25.9795 96.7734 25.5693C96.1406 25.1533 95.6514 24.582 95.3057 23.8555C94.96 23.123 94.7871 22.2881 94.7871 21.3506V21.1572C94.7871 20.2197 94.96 19.3877 95.3057 18.6611C95.6514 17.9287 96.1406 17.3545 96.7734 16.9385C97.4121 16.5225 98.165 16.3145 99.0322 16.3145C99.9111 16.3145 100.667 16.5225 101.3 16.9385C101.938 17.3545 102.431 17.9258 102.776 18.6523C103.122 19.3789 103.295 20.2139 103.295 21.1572V21.3506C103.295 22.2939 103.122 23.1318 102.776 23.8643C102.431 24.5908 101.941 25.1592 101.309 25.5693C100.676 25.9795 99.9229 26.1846 99.0498 26.1846ZM99.0498 24.8311C99.6006 24.8311 100.061 24.6816 100.43 24.3828C100.805 24.0781 101.086 23.665 101.273 23.1436C101.467 22.6162 101.563 22.0186 101.563 21.3506V21.1572C101.563 20.4893 101.467 19.8945 101.273 19.373C101.086 18.8457 100.805 18.4326 100.43 18.1338C100.055 17.8291 99.5889 17.6768 99.0322 17.6768C98.4814 17.6768 98.0186 17.8291 97.6436 18.1338C97.2686 18.4326 96.9873 18.8457 96.7998 19.373C96.6123 19.8945 96.5186 20.4893 96.5186 21.1572V21.3506C96.5186 22.0186 96.6123 22.6162 96.7998 23.1436C96.9873 23.665 97.2686 24.0781 97.6436 24.3828C98.0244 24.6816 98.4932 24.8311 99.0498 24.8311ZM109.395 26.1846C108.521 26.1846 107.766 25.9883 107.127 25.5957C106.494 25.1973 106.005 24.6494 105.659 23.9521C105.313 23.249 105.141 22.4434 105.141 21.5352V20.3047C105.141 19.0566 105.316 17.9756 105.668 17.0615C106.025 16.1475 106.529 15.4121 107.18 14.8555C107.83 14.2988 108.598 13.9326 109.482 13.7568C110.221 13.6221 110.754 13.4609 111.082 13.2734C111.416 13.0859 111.583 12.7783 111.583 12.3506H112.919L112.937 12.4033C112.948 12.9189 112.893 13.3379 112.77 13.6602C112.652 13.9824 112.465 14.2402 112.207 14.4336C111.949 14.627 111.621 14.7793 111.223 14.8906C110.824 15.002 110.353 15.1045 109.808 15.1982C109.274 15.2861 108.788 15.4531 108.349 15.6992C107.915 15.9395 107.555 16.2705 107.268 16.6924C106.986 17.1084 106.802 17.627 106.714 18.248L106.749 18.292C107.095 17.9229 107.528 17.6211 108.05 17.3867C108.577 17.1523 109.137 17.0352 109.729 17.0352C110.531 17.0352 111.226 17.2197 111.812 17.5889C112.397 17.958 112.849 18.4678 113.165 19.1182C113.487 19.7627 113.648 20.5039 113.648 21.3418V21.5352C113.648 22.4434 113.476 23.249 113.13 23.9521C112.784 24.6494 112.292 25.1973 111.653 25.5957C111.021 25.9883 110.268 26.1846 109.395 26.1846ZM109.395 24.8311C109.945 24.8311 110.408 24.6904 110.783 24.4092C111.158 24.1221 111.439 23.7324 111.627 23.2402C111.82 22.7422 111.917 22.1738 111.917 21.5352V21.3418C111.917 20.7793 111.82 20.2754 111.627 19.8301C111.434 19.3848 111.149 19.0332 110.774 18.7754C110.399 18.5176 109.934 18.3887 109.377 18.3887C108.826 18.3887 108.363 18.5176 107.988 18.7754C107.619 19.0332 107.341 19.3848 107.153 19.8301C106.966 20.2754 106.872 20.7793 106.872 21.3418V21.5352C106.872 22.1738 106.966 22.7422 107.153 23.2402C107.341 23.7324 107.622 24.1221 107.997 24.4092C108.372 24.6904 108.838 24.8311 109.395 24.8311ZM117.173 29.8408C117.038 29.8408 116.862 29.8232 116.646 29.7881C116.429 29.7588 116.262 29.7295 116.145 29.7002L116.32 28.3379C116.42 28.3496 116.558 28.3584 116.733 28.3643C116.909 28.376 117.029 28.3818 117.094 28.3818C117.463 28.3818 117.762 28.2412 117.99 27.96C118.225 27.6787 118.441 27.2949 118.641 26.8086L119.054 25.8066L115.688 17.7471L114.668 17.6064V16.4902H118.658V17.6064L117.507 17.7822L119.361 22.5371L119.81 23.7764H119.862L122.06 17.7822L120.847 17.6064V16.4902H124.758V17.6064L123.773 17.7471L120.029 27.459C119.854 27.916 119.64 28.3232 119.388 28.6807C119.142 29.0439 118.837 29.3281 118.474 29.5332C118.116 29.7383 117.683 29.8408 117.173 29.8408ZM129.794 26.1846C128.915 26.1846 128.15 25.9854 127.5 25.5869C126.85 25.1826 126.346 24.623 125.988 23.9082C125.637 23.1934 125.461 22.3672 125.461 21.4297V21.043C125.461 20.1406 125.646 19.335 126.015 18.626C126.39 17.9111 126.885 17.3486 127.5 16.9385C128.121 16.5225 128.798 16.3145 129.53 16.3145C130.386 16.3145 131.101 16.4902 131.675 16.8418C132.255 17.1934 132.691 17.6885 132.984 18.3271C133.277 18.96 133.424 19.707 133.424 20.5684V21.6494H127.254L127.228 21.6934C127.239 22.3027 127.345 22.8447 127.544 23.3193C127.749 23.7881 128.042 24.1572 128.423 24.4268C128.804 24.6963 129.261 24.8311 129.794 24.8311C130.38 24.8311 130.893 24.749 131.332 24.585C131.777 24.415 132.161 24.1836 132.483 23.8906L133.16 25.0156C132.82 25.3438 132.369 25.6221 131.807 25.8506C131.25 26.0732 130.579 26.1846 129.794 26.1846ZM127.307 20.2959H131.692V20.0674C131.692 19.6104 131.61 19.2031 131.446 18.8457C131.288 18.4824 131.048 18.1982 130.726 17.9932C130.409 17.7822 130.011 17.6768 129.53 17.6768C129.144 17.6768 128.792 17.791 128.476 18.0195C128.159 18.2422 127.898 18.5469 127.693 18.9336C127.488 19.3203 127.354 19.7598 127.289 20.252L127.307 20.2959ZM134.979 26V24.8926L136.412 24.6465V17.8525L134.979 17.6064V16.4902H136.412H138.645L141.738 23.7324H141.791L144.894 16.4902H147.064H148.497V17.6064L147.064 17.8525V24.6465L148.497 24.8926V26H143.9V24.8926L145.333 24.6465V19.3994L145.28 19.3818L142.362 26H141.167L138.196 19.2412L138.144 19.2588V24.6465L139.576 24.8926V26H134.979ZM160.257 26.1846C158.974 26.1846 157.901 25.9033 157.04 25.3408C156.185 24.7783 155.54 24.0078 155.106 23.0293C154.679 22.0508 154.465 20.9404 154.465 19.6982V19.5137C154.465 18.2598 154.69 17.1465 155.142 16.1738C155.593 15.1953 156.24 14.4248 157.084 13.8623C157.928 13.2998 158.936 13.0186 160.107 13.0186C160.934 13.0186 161.689 13.1475 162.375 13.4053C163.061 13.6631 163.629 13.9912 164.08 14.3896V17.1494H162.7L162.516 15.1279C162.328 14.9814 162.111 14.8584 161.865 14.7588C161.625 14.6592 161.355 14.583 161.057 14.5303C160.764 14.4775 160.444 14.4512 160.099 14.4512C159.261 14.4512 158.552 14.668 157.972 15.1016C157.392 15.5293 156.952 16.1211 156.653 16.877C156.354 17.6328 156.205 18.5059 156.205 19.4961V19.6982C156.205 20.7705 156.363 21.6875 156.68 22.4492C157.002 23.2051 157.468 23.7822 158.077 24.1807C158.692 24.5791 159.439 24.7783 160.318 24.7783C160.729 24.7783 161.13 24.7285 161.522 24.6289C161.915 24.5293 162.24 24.4004 162.498 24.2422L162.691 22.458H164.045V25.2354C163.564 25.5342 162.99 25.7686 162.322 25.9385C161.654 26.1025 160.966 26.1846 160.257 26.1846ZM166.233 26V24.8926L167.666 24.6465V17.8525L166.233 17.6064V16.4902H167.666H171.41C172.664 16.4902 173.637 16.71 174.328 17.1494C175.02 17.583 175.365 18.2363 175.365 19.1094C175.365 19.5547 175.23 19.9531 174.961 20.3047C174.691 20.6504 174.311 20.9141 173.818 21.0957C174.41 21.2422 174.873 21.5176 175.207 21.9219C175.541 22.3203 175.708 22.7773 175.708 23.293C175.708 24.1836 175.383 24.8574 174.732 25.3145C174.088 25.7715 173.183 26 172.017 26H166.233ZM169.397 24.6641H172.017C172.661 24.6641 173.147 24.5439 173.476 24.3037C173.804 24.0576 173.968 23.7061 173.968 23.249C173.968 22.7979 173.804 22.4492 173.476 22.2031C173.147 21.957 172.661 21.834 172.017 21.834H169.397V24.6641ZM169.397 20.5068H171.419C172.151 20.5068 172.702 20.3984 173.071 20.1816C173.446 19.9648 173.634 19.6367 173.634 19.1973C173.634 18.2891 172.893 17.835 171.41 17.835H169.397V20.5068ZM180.287 26.1846C179.297 26.1846 178.544 25.9443 178.028 25.4639C177.513 24.9775 177.255 24.2949 177.255 23.416C177.255 22.8125 177.419 22.2881 177.747 21.8428C178.081 21.3916 178.562 21.043 179.188 20.7969C179.815 20.5449 180.565 20.4189 181.438 20.4189H183.135V19.4873C183.135 18.9131 182.959 18.4678 182.607 18.1514C182.262 17.835 181.772 17.6768 181.14 17.6768C180.741 17.6768 180.396 17.7266 180.103 17.8262C179.81 17.9199 179.543 18.0518 179.303 18.2217L179.118 19.5488H177.782V17.3691C178.21 17.0234 178.708 16.7627 179.276 16.5869C179.845 16.4053 180.475 16.3145 181.166 16.3145C182.32 16.3145 183.226 16.5898 183.882 17.1406C184.538 17.6914 184.866 18.4795 184.866 19.5049V24.084C184.866 24.207 184.866 24.3271 184.866 24.4443C184.872 24.5615 184.881 24.6787 184.893 24.7959L185.815 24.8926V26H183.328C183.275 25.7422 183.234 25.5107 183.205 25.3057C183.176 25.1006 183.155 24.8955 183.144 24.6904C182.81 25.1182 182.391 25.4756 181.887 25.7627C181.389 26.0439 180.855 26.1846 180.287 26.1846ZM180.542 24.7344C181.116 24.7344 181.641 24.5967 182.115 24.3213C182.59 24.0459 182.93 23.7148 183.135 23.3281V21.6055H181.377C180.58 21.6055 179.982 21.7959 179.584 22.1768C179.186 22.5576 178.986 22.9824 178.986 23.4512C178.986 23.8672 179.115 24.1865 179.373 24.4092C179.631 24.626 180.021 24.7344 180.542 24.7344ZM187.081 26V24.8926L188.329 24.708L189.955 22.0537C189.352 21.8369 188.886 21.4941 188.558 21.0254C188.235 20.5566 188.074 20.0146 188.074 19.3994C188.074 18.8311 188.221 18.3271 188.514 17.8877C188.807 17.4482 189.226 17.1055 189.771 16.8594C190.315 16.6133 190.966 16.4902 191.722 16.4902H197.171V17.6064L195.738 17.8525V24.6465L197.171 24.8926V26H192.574V24.8926L194.007 24.6465V22.3086H191.66L189.41 26H187.081ZM191.546 20.9463H194.007V17.835H191.722C191.095 17.835 190.62 17.9932 190.298 18.3096C189.976 18.6201 189.814 18.9893 189.814 19.417C189.814 19.8389 189.958 20.1992 190.245 20.498C190.538 20.7969 190.972 20.9463 191.546 20.9463ZM200.818 26V24.8926L202.251 24.6465V17.835H200.247L200.115 19.3203H198.639V16.4902H207.639V19.3203H206.153L206.021 17.835H203.982V24.6465L205.415 24.8926V26H200.818ZM214.749 19.7598C215.874 19.7598 216.75 20.0469 217.377 20.6211C218.004 21.1895 218.317 21.9307 218.317 22.8447C218.317 23.7646 218.001 24.5205 217.368 25.1123C216.741 25.7041 215.868 26 214.749 26H209.229V24.8926L210.662 24.6465V17.8525L209.229 17.6064V16.4902H213.826V17.6064L212.394 17.8525V19.7598H214.749ZM214.749 24.6465C215.376 24.6465 215.836 24.4824 216.129 24.1543C216.428 23.8203 216.577 23.4043 216.577 22.9062C216.577 22.4258 216.428 22.0068 216.129 21.6494C215.83 21.292 215.37 21.1133 214.749 21.1133H212.394V24.6465H214.749ZM69.6152 46V44.8926L70.5645 44.7607L75.0381 33.2031H76.5234L80.918 44.7607L81.8584 44.8926V46H78.1846V44.8926L79.1514 44.7256L78.3076 42.3701H73.1836L72.3135 44.7256L73.2803 44.8926V46H69.6152ZM73.7197 40.9199H77.7803L75.8994 35.7168L75.7939 35.4268H75.7412L75.6357 35.7168L73.7197 40.9199ZM83.335 46V44.8926L84.7676 44.6465V37.8525L83.335 37.6064V36.4902H87.9316V37.6064L86.499 37.8525V40.6035H90.7266V37.8525L89.2939 37.6064V36.4902H90.7266H92.4668H93.8994V37.6064L92.4668 37.8525V44.6465L93.8994 44.8926V46H89.2939V44.8926L90.7266 44.6465V41.957H86.499V44.6465L87.9316 44.8926V46H83.335ZM98.4785 46.1846C97.4883 46.1846 96.7354 45.9443 96.2197 45.4639C95.7041 44.9775 95.4463 44.2949 95.4463 43.416C95.4463 42.8125 95.6104 42.2881 95.9385 41.8428C96.2725 41.3916 96.7529 41.043 97.3799 40.7969C98.0068 40.5449 98.7568 40.4189 99.6299 40.4189H101.326V39.4873C101.326 38.9131 101.15 38.4678 100.799 38.1514C100.453 37.835 99.9639 37.6768 99.3311 37.6768C98.9326 37.6768 98.5869 37.7266 98.2939 37.8262C98.001 37.9199 97.7344 38.0518 97.4941 38.2217L97.3096 39.5488H95.9736V37.3691C96.4014 37.0234 96.8994 36.7627 97.4678 36.5869C98.0361 36.4053 98.666 36.3145 99.3574 36.3145C100.512 36.3145 101.417 36.5898 102.073 37.1406C102.729 37.6914 103.058 38.4795 103.058 39.5049V44.084C103.058 44.207 103.058 44.3271 103.058 44.4443C103.063 44.5615 103.072 44.6787 103.084 44.7959L104.007 44.8926V46H101.52C101.467 45.7422 101.426 45.5107 101.396 45.3057C101.367 45.1006 101.347 44.8955 101.335 44.6904C101.001 45.1182 100.582 45.4756 100.078 45.7627C99.5801 46.0439 99.0469 46.1846 98.4785 46.1846ZM98.7334 44.7344C99.3076 44.7344 99.832 44.5967 100.307 44.3213C100.781 44.0459 101.121 43.7148 101.326 43.3281V41.6055H99.5684C98.7715 41.6055 98.1738 41.7959 97.7754 42.1768C97.377 42.5576 97.1777 42.9824 97.1777 43.4512C97.1777 43.8672 97.3066 44.1865 97.5645 44.4092C97.8223 44.626 98.2119 44.7344 98.7334 44.7344ZM105.308 46L105.334 44.5234L105.694 44.5146C106.11 44.5146 106.438 44.3857 106.679 44.1279C106.919 43.8643 107.092 43.4424 107.197 42.8623C107.303 42.2764 107.355 41.5059 107.355 40.5508V37.8525L105.923 37.6064V36.4902H114.044H115.477V37.6064L114.044 37.8525V44.6465L115.477 44.8926V46H110.88V44.8926L112.312 44.6465V37.8613H109.087V40.5508C109.087 42.4258 108.838 43.8027 108.34 44.6816C107.848 45.5605 107.001 46 105.8 46H105.308ZM117.12 46V44.8926L118.553 44.6465V37.8525L117.12 37.6064V36.4902H120.275H121.708V37.6064L120.275 37.8525V43.2227L120.328 43.2402L124.521 36.4902H126.252H127.685V37.6064L126.252 37.8525V44.6465L127.685 44.8926V46H123.088V44.8926L124.521 44.6465V39.2676L124.468 39.25L120.275 46H117.12ZM131.402 46V44.8926L132.835 44.6465V37.835H130.831L130.699 39.3203H129.223V36.4902H138.223V39.3203H136.737L136.605 37.835H134.566V44.6465L135.999 44.8926V46H131.402ZM139.813 46V44.8926L141.246 44.6465V37.8525L139.813 37.6064V36.4902H142.969H144.401V37.6064L142.969 37.8525V43.2227L143.021 43.2402L147.214 36.4902H148.945H150.378V37.6064L148.945 37.8525V44.6465L150.378 44.8926V46H145.781V44.8926L147.214 44.6465V39.2676L147.161 39.25L142.969 46H139.813ZM152.083 46V44.8926L153.516 44.6465V37.8525L152.083 37.6064V36.4902H156.68V37.6064L155.247 37.8525V40.5068H156.161L158.147 37.8438C158.505 37.3457 158.854 36.9678 159.193 36.71C159.539 36.4521 159.926 36.3232 160.354 36.3232C160.623 36.3232 160.846 36.3584 161.021 36.4287C161.197 36.4932 161.396 36.5957 161.619 36.7363L161.373 37.9141C161.121 37.873 160.975 37.8496 160.934 37.8438C160.898 37.8379 160.822 37.835 160.705 37.835C160.488 37.835 160.274 37.9141 160.063 38.0723C159.858 38.2305 159.677 38.418 159.519 38.6348L157.682 41.0166L160.679 44.6729L161.9 44.8926V46H159.589L156.372 41.9658H155.247V44.6465L156.68 44.8926V46H152.083ZM165.056 49.8408C164.921 49.8408 164.745 49.8232 164.528 49.7881C164.312 49.7588 164.145 49.7295 164.027 49.7002L164.203 48.3379C164.303 48.3496 164.44 48.3584 164.616 48.3643C164.792 48.376 164.912 48.3818 164.977 48.3818C165.346 48.3818 165.645 48.2412 165.873 47.96C166.107 47.6787 166.324 47.2949 166.523 46.8086L166.937 45.8066L163.57 37.7471L162.551 37.6064V36.4902H166.541V37.6064L165.39 37.7822L167.244 42.5371L167.692 43.7764H167.745L169.942 37.7822L168.729 37.6064V36.4902H172.641V37.6064L171.656 37.7471L167.912 47.459C167.736 47.916 167.522 48.3232 167.271 48.6807C167.024 49.0439 166.72 49.3281 166.356 49.5332C165.999 49.7383 165.565 49.8408 165.056 49.8408ZM178.151 46V44.8926L179.584 44.6465V37.8525L178.151 37.6064V36.4902H188.716V37.6064L187.283 37.8525V44.6465L188.716 44.8926V46H184.119V44.8926L185.552 44.6465V37.8613H181.315V44.6465L182.748 44.8926V46H178.151ZM194.517 46.1846C193.638 46.1846 192.879 45.9795 192.24 45.5693C191.607 45.1533 191.118 44.582 190.772 43.8555C190.427 43.123 190.254 42.2881 190.254 41.3506V41.1572C190.254 40.2197 190.427 39.3877 190.772 38.6611C191.118 37.9287 191.607 37.3545 192.24 36.9385C192.879 36.5225 193.632 36.3145 194.499 36.3145C195.378 36.3145 196.134 36.5225 196.767 36.9385C197.405 37.3545 197.897 37.9258 198.243 38.6523C198.589 39.3789 198.762 40.2139 198.762 41.1572V41.3506C198.762 42.2939 198.589 43.1318 198.243 43.8643C197.897 44.5908 197.408 45.1592 196.775 45.5693C196.143 45.9795 195.39 46.1846 194.517 46.1846ZM194.517 44.8311C195.067 44.8311 195.527 44.6816 195.896 44.3828C196.271 44.0781 196.553 43.665 196.74 43.1436C196.934 42.6162 197.03 42.0186 197.03 41.3506V41.1572C197.03 40.4893 196.934 39.8945 196.74 39.373C196.553 38.8457 196.271 38.4326 195.896 38.1338C195.521 37.8291 195.056 37.6768 194.499 37.6768C193.948 37.6768 193.485 37.8291 193.11 38.1338C192.735 38.4326 192.454 38.8457 192.267 39.373C192.079 39.8945 191.985 40.4893 191.985 41.1572V41.3506C191.985 42.0186 192.079 42.6162 192.267 43.1436C192.454 43.665 192.735 44.0781 193.11 44.3828C193.491 44.6816 193.96 44.8311 194.517 44.8311ZM204.659 46V44.6465H205.011C205.409 44.6465 205.743 44.5527 206.013 44.3652C206.288 44.1719 206.511 43.8643 206.681 43.4424C206.856 43.0146 206.994 42.458 207.094 41.7725C207.193 41.0811 207.264 40.2344 207.305 39.2324L207.516 34.5566L206.145 34.3193V33.2031H216.823V34.3193L215.391 34.5654V44.6465L216.823 44.8926V46H212.227V44.8926L213.659 44.6465V34.5654H209.238L209.027 39.2324C208.975 40.4336 208.869 41.4619 208.711 42.3174C208.553 43.1729 208.321 43.873 208.017 44.418C207.718 44.9629 207.331 45.3643 206.856 45.6221C206.382 45.874 205.802 46 205.116 46H204.659ZM218.3 46V44.8926L219.732 44.6465V37.8525L218.3 37.6064V36.4902H221.455H222.888V37.6064L221.455 37.8525V43.2227L221.508 43.2402L225.7 36.4902H227.432H228.864V37.6064L227.432 37.8525V44.6465L228.864 44.8926V46H224.268V44.8926L225.7 44.6465V39.2676L225.647 39.25L221.455 46H218.3ZM230.464 48.7949L230.297 44.6465H231.044C231.29 44.3652 231.504 44.0869 231.686 43.8115C231.867 43.5303 232.025 43.2227 232.16 42.8887C232.295 42.5488 232.403 42.1533 232.485 41.7021C232.573 41.2451 232.638 40.7002 232.679 40.0674L232.767 37.8438L231.387 37.6064V36.4902H239.033H240.466V37.6064L239.033 37.8525V44.6465H240.299L240.123 48.7949H238.567V46H232.02V48.7949H230.464ZM233.039 44.6465H237.302V38.0283H234.489L234.41 40.0674C234.346 41.1221 234.193 42.0215 233.953 42.7656C233.719 43.5098 233.414 44.1367 233.039 44.6465ZM246.161 46.1846C245.282 46.1846 244.518 45.9854 243.867 45.5869C243.217 45.1826 242.713 44.623 242.355 43.9082C242.004 43.1934 241.828 42.3672 241.828 41.4297V41.043C241.828 40.1406 242.013 39.335 242.382 38.626C242.757 37.9111 243.252 37.3486 243.867 36.9385C244.488 36.5225 245.165 36.3145 245.897 36.3145C246.753 36.3145 247.468 36.4902 248.042 36.8418C248.622 37.1934 249.059 37.6885 249.352 38.3271C249.645 38.96 249.791 39.707 249.791 40.5684V41.6494H243.621L243.595 41.6934C243.606 42.3027 243.712 42.8447 243.911 43.3193C244.116 43.7881 244.409 44.1572 244.79 44.4268C245.171 44.6963 245.628 44.8311 246.161 44.8311C246.747 44.8311 247.26 44.749 247.699 44.585C248.145 44.415 248.528 44.1836 248.851 43.8906L249.527 45.0156C249.188 45.3438 248.736 45.6221 248.174 45.8506C247.617 46.0732 246.946 46.1846 246.161 46.1846ZM243.674 40.2959H248.06V40.0674C248.06 39.6104 247.978 39.2031 247.813 38.8457C247.655 38.4824 247.415 38.1982 247.093 37.9932C246.776 37.7822 246.378 37.6768 245.897 37.6768C245.511 37.6768 245.159 37.791 244.843 38.0195C244.526 38.2422 244.266 38.5469 244.061 38.9336C243.855 39.3203 243.721 39.7598 243.656 40.252L243.674 40.2959ZM250.881 49.6562V48.54L252.226 48.2939V37.8525L250.793 37.6064V36.4902H253.711L253.869 37.6504C254.186 37.2168 254.569 36.8857 255.021 36.6572C255.478 36.4287 256.005 36.3145 256.603 36.3145C257.388 36.3145 258.059 36.5283 258.615 36.9561C259.172 37.3779 259.597 37.9727 259.89 38.7402C260.183 39.502 260.329 40.3955 260.329 41.4209V41.6055C260.329 42.5195 260.18 43.3193 259.881 44.0049C259.588 44.6904 259.166 45.2266 258.615 45.6133C258.064 45.9941 257.402 46.1846 256.629 46.1846C256.043 46.1846 255.527 46.0879 255.082 45.8945C254.643 45.6953 254.268 45.4023 253.957 45.0156V48.2939L255.469 48.54V49.6562H250.881ZM256.093 44.8311C256.913 44.8311 257.534 44.5322 257.956 43.9346C258.378 43.3369 258.589 42.5605 258.589 41.6055V41.4209C258.589 40.6943 258.495 40.0557 258.308 39.5049C258.12 38.9482 257.839 38.5117 257.464 38.1953C257.095 37.8789 256.632 37.7207 256.075 37.7207C255.583 37.7207 255.161 37.832 254.81 38.0547C254.458 38.2773 254.174 38.582 253.957 38.9688V43.6006C254.174 43.9932 254.455 44.2979 254.801 44.5146C255.152 44.7256 255.583 44.8311 256.093 44.8311ZM265.119 46.1846C264.129 46.1846 263.376 45.9443 262.86 45.4639C262.345 44.9775 262.087 44.2949 262.087 43.416C262.087 42.8125 262.251 42.2881 262.579 41.8428C262.913 41.3916 263.394 41.043 264.021 40.7969C264.647 40.5449 265.397 40.4189 266.271 40.4189H267.967V39.4873C267.967 38.9131 267.791 38.4678 267.439 38.1514C267.094 37.835 266.604 37.6768 265.972 37.6768C265.573 37.6768 265.228 37.7266 264.935 37.8262C264.642 37.9199 264.375 38.0518 264.135 38.2217L263.95 39.5488H262.614V37.3691C263.042 37.0234 263.54 36.7627 264.108 36.5869C264.677 36.4053 265.307 36.3145 265.998 36.3145C267.152 36.3145 268.058 36.5898 268.714 37.1406C269.37 37.6914 269.698 38.4795 269.698 39.5049V44.084C269.698 44.207 269.698 44.3271 269.698 44.4443C269.704 44.5615 269.713 44.6787 269.725 44.7959L270.647 44.8926V46H268.16C268.107 45.7422 268.066 45.5107 268.037 45.3057C268.008 45.1006 267.987 44.8955 267.976 44.6904C267.642 45.1182 267.223 45.4756 266.719 45.7627C266.221 46.0439 265.688 46.1846 265.119 46.1846ZM265.374 44.7344C265.948 44.7344 266.473 44.5967 266.947 44.3213C267.422 44.0459 267.762 43.7148 267.967 43.3281V41.6055H266.209C265.412 41.6055 264.814 41.7959 264.416 42.1768C264.018 42.5576 263.818 42.9824 263.818 43.4512C263.818 43.8672 263.947 44.1865 264.205 44.4092C264.463 44.626 264.853 44.7344 265.374 44.7344ZM272.194 46V44.8926L273.627 44.6465V37.8525L272.194 37.6064V36.4902H273.627H275.859L278.953 43.7324H279.006L282.108 36.4902H284.279H285.712V37.6064L284.279 37.8525V44.6465L285.712 44.8926V46H281.115V44.8926L282.548 44.6465V39.3994L282.495 39.3818L279.577 46H278.382L275.411 39.2412L275.358 39.2588V44.6465L276.791 44.8926V46H272.194Z" fill="url(#paint0_linear_4_175)"/>
<path fill-rule="evenodd" clip-rule="evenodd" d="M51.7195 14.983C52.0752 14.6256 52.6518 14.6256 53.0075 14.983C53.3632 15.3403 53.3632 15.9197 53.0075 16.277C52.6518 16.6344 52.0752 16.6344 51.7195 16.277C51.3638 15.9197 51.3638 15.3403 51.7195 14.983ZM50.8608 14.1203C51.6907 13.2865 53.0363 13.2865 53.8662 14.1203C54.6961 14.9541 54.6961 16.3059 53.8662 17.1397C53.2028 17.8063 52.2099 17.94 51.4143 17.5409L39.8428 28.1663L39.8427 28.1661V28.1662H36.9586V26.9462H39.3733L50.5267 16.7048C50.0521 15.8873 50.1635 14.8209 50.8608 14.1203ZM35.6636 17.9492L31.143 21.0924V24.2011H29.9287V20.5409H29.9287L31.5486 19.395L31.2081 19.0362C30.4034 19.4712 29.3785 19.3474 28.6991 18.6648C27.8692 17.831 27.8692 16.4792 28.6991 15.6453C29.529 14.8115 30.8745 14.8115 31.7044 15.6453C32.3836 16.3277 32.507 17.3571 32.0745 18.1655L32.5918 18.6571L34.9477 16.9906C34.6643 16.2308 34.8268 15.3414 35.435 14.7303C36.2649 13.8965 37.6105 13.8965 38.4404 14.7303C39.2703 15.5641 39.2703 16.916 38.4404 17.7498C37.683 18.5107 36.4961 18.5772 35.6636 17.9492ZM28.1072 22.676H27.5V24.2011H28.1072V22.676ZM32.9645 22.676H34.1789V24.2011H32.9645V22.676ZM36.9112 34.2665H39.3398L48.6869 31.8973C49.1659 32.6831 50.1182 33.0942 51.0492 32.8436C52.1829 32.5384 52.8557 31.3676 52.5519 30.2286C52.2482 29.0896 51.0829 28.4137 49.9492 28.7189C49.0205 28.9689 48.401 29.7999 48.3745 30.7184L39.1896 33.0465H36.9112V34.2665ZM36.9112 31.2164H39.3398L50.7268 24.7032C51.392 25.3365 52.4169 25.4854 53.251 25.0015C54.2674 24.4119 54.6157 23.1061 54.0288 22.0849C53.442 21.0637 52.1423 20.7138 51.1259 21.3034C50.2926 21.7868 49.9084 22.7515 50.1204 23.6462L39.0184 29.9963H36.9112V31.2164ZM36.9112 36.0966H39.3398L46.2361 38.1292C46.7165 37.3482 47.6658 36.9405 48.5938 37.1903C49.7275 37.4955 50.4003 38.6663 50.0965 39.8053C49.7927 40.9443 48.6275 41.6202 47.4938 41.315C46.5621 41.0642 45.9417 40.2288 45.9188 39.3068L39.1666 37.3167H36.9112V36.0966ZM43.7571 43.4604L39.3398 39.1468H36.9112V40.3668H38.8471L42.8998 44.3244C42.4656 45.1332 42.5884 46.164 43.2684 46.8472C44.0983 47.681 45.4438 47.681 46.2737 46.8472C47.1036 46.0134 47.1036 44.6615 46.2737 43.8277C45.5922 43.143 44.563 43.0205 43.7571 43.4604ZM27.1964 43.112H28.1072V49.2646L31.0032 52.1743C31.8087 51.7363 32.8363 51.8592 33.517 52.5431C34.3469 53.3769 34.3469 54.7288 33.517 55.5626C32.6871 56.3964 31.3416 56.3964 30.5116 55.5626C29.8309 54.8787 29.7086 53.8462 30.1446 53.037L28.1072 50.99V55.0959C28.985 55.3584 29.6251 56.1754 29.6251 57.1426C29.6251 58.3218 28.6737 59.2777 27.5 59.2777V58.0577C28.003 58.0577 28.4108 57.648 28.4108 57.1426C28.4108 56.6373 28.003 56.2276 27.5 56.2276V55.3126H27.1964V43.112ZM31.143 43.112H29.9287V47.3822L35.3137 49.214C35.2539 50.0069 35.6393 50.8018 36.3706 51.226C37.387 51.8155 38.6867 51.4657 39.2735 50.4444C39.8603 49.4232 39.5121 48.1174 38.4957 47.5278C37.556 46.9828 36.3742 47.2406 35.7374 48.0896L31.143 46.4671L31.143 43.112ZM32.9645 43.112H34.1789V45.5521H32.9645V43.112ZM32.6583 53.4058C33.014 53.7632 33.014 54.3426 32.6583 54.6999C32.3026 55.0573 31.726 55.0573 31.3703 54.6999C31.0146 54.3426 31.0146 53.7632 31.3703 53.4058C31.726 53.0485 32.3026 53.0485 32.6583 53.4058ZM51.7331 22.36C52.1687 22.1074 52.7257 22.2573 52.9772 22.695C53.2287 23.1326 53.0794 23.6923 52.6438 23.9449C52.2082 24.1976 51.6512 24.0477 51.3997 23.61C51.1482 23.1723 51.2975 22.6127 51.7331 22.36ZM50.2635 29.8973C50.7494 29.7665 51.2488 30.0562 51.379 30.5444C51.5091 31.0325 51.2208 31.5343 50.7349 31.6651C50.2491 31.7959 49.7497 31.5062 49.6195 31.018C49.4893 30.5299 49.7776 30.0281 50.2635 29.8973ZM48.2795 38.3688C48.7654 38.4996 49.0537 39.0013 48.9235 39.4895C48.7934 39.9776 48.294 40.2673 47.8081 40.1365C47.3222 40.0057 47.0339 39.504 47.1641 39.0158C47.2943 38.5277 47.7937 38.238 48.2795 38.3688ZM45.4151 44.6904C45.7707 45.0477 45.7707 45.6271 45.4151 45.9845C45.0594 46.3418 44.4827 46.3418 44.127 45.9845C43.7714 45.6271 43.7714 45.0477 44.127 44.6904C44.4827 44.333 45.0594 44.333 45.4151 44.6904ZM37.8885 48.5844C38.3241 48.8371 38.4733 49.3968 38.2218 49.8344C37.9703 50.2721 37.4133 50.422 36.9777 50.1693C36.5421 49.9167 36.3929 49.357 36.6444 48.9194C36.8959 48.4817 37.4529 48.3317 37.8885 48.5844ZM36.2937 15.593C36.6494 15.2357 37.226 15.2357 37.5817 15.593C37.9374 15.9503 37.9374 16.5297 37.5817 16.8871C37.226 17.2444 36.6494 17.2444 36.2937 16.8871C35.938 16.5297 35.938 15.9503 36.2937 15.593ZM29.5578 17.8021C29.2021 17.4448 29.2021 16.8654 29.5578 16.5081C29.9134 16.1507 30.4901 16.1507 30.8458 16.5081C31.2014 16.8654 31.2014 17.4448 30.8458 17.8021C30.4901 18.1595 29.9134 18.1595 29.5578 17.8021Z" fill="url(#paint1_linear_4_175)"/>
<path fill-rule="evenodd" clip-rule="evenodd" d="M3.28051 14.983C2.92484 14.6256 2.34818 14.6256 1.9925 14.983C1.63683 15.3403 1.63683 15.9197 1.9925 16.277C2.34818 16.6344 2.92484 16.6344 3.28051 16.277C3.63618 15.9197 3.63618 15.3403 3.28051 14.983ZM4.13918 14.1203C3.30927 13.2865 1.96374 13.2865 1.13383 14.1203C0.303932 14.9541 0.303932 16.3059 1.13383 17.1397C1.79722 17.8063 2.79009 17.94 3.58569 17.5409L15.1572 28.1663L15.1573 28.1661V28.1662H18.0414V26.9462H15.6267L4.47331 16.7048C4.94791 15.8873 4.83653 14.8209 4.13918 14.1203ZM19.3364 17.9492L23.857 21.0924V24.2011H25.0713V20.5409H25.0713L23.4514 19.395L23.7919 19.0362C24.5966 19.4712 25.6215 19.3474 26.3009 18.6648C27.1308 17.831 27.1308 16.4792 26.3009 15.6453C25.471 14.8115 24.1255 14.8115 23.2956 15.6453C22.6164 16.3277 22.493 17.3571 22.9255 18.1655L22.4082 18.6571L20.0523 16.9906C20.3357 16.2308 20.1732 15.3414 19.565 14.7303C18.7351 13.8965 17.3895 13.8965 16.5596 14.7303C15.7297 15.5641 15.7297 16.916 16.5596 17.7498C17.317 18.5107 18.5039 18.5772 19.3364 17.9492ZM26.8928 22.676H27.5V24.2011H26.8928V22.676ZM22.0355 22.676H20.8211V24.2011H22.0355V22.676ZM18.0888 34.2665H15.6602L6.31306 31.8973C5.83408 32.6831 4.88176 33.0942 3.95075 32.8436C2.81708 32.5384 2.14431 31.3676 2.44808 30.2286C2.75184 29.0896 3.91712 28.4137 5.05079 28.7189C5.97955 28.9689 6.59896 29.7999 6.62552 30.7184L15.8104 33.0465H18.0888V34.2665ZM18.0888 31.2164H15.6602L4.27316 24.7032C3.60803 25.3365 2.58313 25.4854 1.749 25.0015C0.732582 24.4119 0.384331 23.1061 0.971161 22.0849C1.55799 21.0637 2.85768 20.7138 3.8741 21.3034C4.70738 21.7868 5.09158 22.7515 4.87964 23.6462L15.9816 29.9963H18.0888V31.2164ZM18.0888 36.0966H15.6602L8.76394 38.1292C8.28351 37.3482 7.33425 36.9405 6.40617 37.1903C5.2725 37.4955 4.59973 38.6663 4.90349 39.8053C5.20726 40.9443 6.37253 41.6202 7.5062 41.315C8.43788 41.0642 9.05827 40.2288 9.08115 39.3068L15.8334 37.3167H18.0888V36.0966ZM11.2429 43.4604L15.6602 39.1468H18.0888V40.3668H16.1529L12.1002 44.3244C12.5344 45.1332 12.4116 46.164 11.7316 46.8472C10.9017 47.681 9.55618 47.681 8.72628 46.8472C7.89638 46.0134 7.89638 44.6615 8.72628 43.8277C9.40779 43.143 10.437 43.0205 11.2429 43.4604ZM27.8036 43.112H26.8928V49.2646L23.9968 52.1743C23.1913 51.7363 22.1637 51.8592 21.483 52.5431C20.6531 53.3769 20.6531 54.7288 21.483 55.5626C22.3129 56.3964 23.6584 56.3964 24.4884 55.5626C25.1691 54.8787 25.2914 53.8462 24.8554 53.037L26.8928 50.99V55.0959C26.015 55.3584 25.3749 56.1754 25.3749 57.1426C25.3749 58.3218 26.3263 59.2777 27.5 59.2777V58.0577C26.997 58.0577 26.5892 57.648 26.5892 57.1426C26.5892 56.6373 26.997 56.2276 27.5 56.2276V55.3126H27.8036V43.112ZM23.857 43.112H25.0713V47.3822L19.6863 49.214C19.7461 50.0069 19.3607 50.8018 18.6294 51.226C17.613 51.8155 16.3133 51.4657 15.7265 50.4444C15.1397 49.4232 15.4879 48.1174 16.5043 47.5278C17.444 46.9828 18.6258 47.2406 19.2626 48.0896L23.857 46.4671L23.857 43.112ZM22.0355 43.112H20.8211V45.5521H22.0355V43.112ZM22.3417 53.4058C21.986 53.7632 21.986 54.3426 22.3417 54.6999C22.6974 55.0573 23.274 55.0573 23.6297 54.6999C23.9854 54.3426 23.9854 53.7632 23.6297 53.4058C23.274 53.0485 22.6974 53.0485 22.3417 53.4058ZM3.26693 22.36C2.83132 22.1074 2.27431 22.2573 2.02281 22.695C1.77131 23.1326 1.92056 23.6923 2.35617 23.9449C2.79178 24.1976 3.34879 24.0477 3.60029 23.61C3.85179 23.1723 3.70254 22.6127 3.26693 22.36ZM4.73649 29.8973C4.25064 29.7665 3.75123 30.0562 3.62105 30.5444C3.49086 31.0325 3.77919 31.5343 4.26505 31.6651C4.75091 31.7959 5.25031 31.5062 5.3805 31.018C5.51068 30.5299 5.22235 30.0281 4.73649 29.8973ZM6.72046 38.3688C6.2346 38.4996 5.94627 39.0013 6.07646 39.4895C6.20664 39.9776 6.70605 40.2673 7.1919 40.1365C7.67776 40.0057 7.96609 39.504 7.83591 39.0158C7.70572 38.5277 7.20632 38.238 6.72046 38.3688ZM9.58495 44.6904C9.22928 45.0477 9.22928 45.6271 9.58495 45.9845C9.94062 46.3418 10.5173 46.3418 10.873 45.9845C11.2286 45.6271 11.2286 45.0477 10.873 44.6904C10.5173 44.333 9.94062 44.333 9.58495 44.6904ZM17.1115 48.5844C16.6759 48.8371 16.5267 49.3968 16.7782 49.8344C17.0297 50.2721 17.5867 50.422 18.0223 50.1693C18.4579 49.9167 18.6071 49.357 18.3556 48.9194C18.1041 48.4817 17.5471 48.3317 17.1115 48.5844ZM18.7063 15.593C18.3506 15.2357 17.774 15.2357 17.4183 15.593C17.0626 15.9503 17.0626 16.5297 17.4183 16.8871C17.774 17.2444 18.3506 17.2444 18.7063 16.8871C19.062 16.5297 19.062 15.9503 18.7063 15.593ZM25.4422 17.8021C25.7979 17.4448 25.7979 16.8654 25.4422 16.5081C25.0866 16.1507 24.5099 16.1507 24.1542 16.5081C23.7986 16.8654 23.7986 17.4448 24.1542 17.8021C24.5099 18.1595 25.0866 18.1595 25.4422 17.8021Z" fill="url(#paint2_linear_4_175)"/>
<path d="M17.9498 25.2023C17.9498 24.5638 18.465 24.0462 19.1005 24.0462H35.8996C36.5351 24.0462 37.0502 24.5638 37.0502 25.2023V42.0809C37.0502 42.7194 36.5351 43.237 35.8996 43.237H19.1005C18.465 43.237 17.9498 42.7194 17.9498 42.0809V25.2023Z" fill="#BBBBBB"/>
<path d="M19.2155 26.2428C19.2155 25.732 19.6276 25.3179 20.136 25.3179H34.864C35.3724 25.3179 35.7845 25.732 35.7845 26.2428V41.0405C35.7845 41.5512 35.3724 41.9653 34.864 41.9653H20.136C19.6276 41.9653 19.2155 41.5512 19.2155 41.0405V26.2428Z" fill="#CCCCCC"/>
<path fill-rule="evenodd" clip-rule="evenodd" d="M27.9698 39.3786C27.9698 39.5112 27.9935 39.6382 28.0368 39.7556C27.9939 39.8133 27.9515 39.8653 27.9099 39.9118C27.6778 40.1707 27.5504 40.1734 27.5383 40.1734C27.5262 40.1734 27.3988 40.1707 27.1667 39.9118C26.9348 39.6531 26.6798 39.2219 26.4451 38.6028C26.316 38.2622 26.1988 37.8804 26.097 37.4638C26.5649 37.2928 27.0477 37.0906 27.5383 36.8583C28.0289 37.0906 28.5117 37.2928 28.9796 37.4638C28.9028 37.7781 28.8172 38.0726 28.7244 38.3446C28.287 38.4828 27.9698 38.8935 27.9698 39.3786ZM27.5383 41.185C26.5351 41.185 25.6518 39.8305 25.137 37.7771C23.1097 38.3559 21.5006 38.2646 20.999 37.3916C20.4973 36.5187 21.2232 35.0729 22.7358 33.5983C22.5413 33.4087 22.3599 33.2196 22.1923 33.0321C21.898 33.1471 21.5562 33.1318 21.2615 32.9608C20.7455 32.6615 20.5687 31.9986 20.8666 31.4802C20.9112 31.4027 20.9639 31.3327 21.0229 31.2709C20.7958 30.7001 20.7746 30.1953 20.999 29.8049C21.5006 28.932 23.1097 28.8407 25.137 29.4195C25.6518 27.3661 26.5351 26.0116 27.5383 26.0116C28.5415 26.0116 29.4248 27.3661 29.9396 29.4195C30.2002 29.3451 30.4539 29.2817 30.6993 29.2297C30.7473 28.9161 30.9314 28.6264 31.2262 28.4554C31.7421 28.1561 32.4019 28.3337 32.6998 28.8521C32.7443 28.9297 32.7783 29.0105 32.802 29.0928C33.4076 29.1805 33.8534 29.4146 34.0777 29.8049C34.5793 30.6778 33.8534 32.1236 32.3408 33.5983C33.8534 35.0729 34.5793 36.5187 34.0777 37.3916C33.576 38.2646 31.9669 38.3559 29.9396 37.7771C29.8734 38.0411 29.8011 38.2935 29.7233 38.533C29.9695 38.7316 30.1272 39.0366 30.1272 39.3786C30.1272 39.9772 29.6442 40.4624 29.0485 40.4624C28.9594 40.4624 28.8728 40.4516 28.7899 40.4311C28.4115 40.9141 27.9869 41.185 27.5383 41.185ZM26.3874 36.2648C26.2206 36.3343 26.0558 36.3998 25.8933 36.461C25.8648 36.289 25.8388 36.1129 25.8154 35.933C25.8655 35.9632 25.9159 35.9932 25.9665 36.0231C25.9912 36.0377 26.0159 36.0522 26.0407 36.0667C26.0604 36.0782 26.0802 36.0898 26.1 36.1012C26.1959 36.1568 26.2916 36.2113 26.3874 36.2648ZM29.1833 36.461C29.0208 36.3998 28.856 36.3343 28.6893 36.2648C28.785 36.2113 28.8808 36.1568 28.9766 36.1012C29.0724 36.0457 29.1673 35.9896 29.2612 35.933C29.2519 36.0042 29.2423 36.0749 29.2322 36.1449C29.2168 36.2517 29.2005 36.3571 29.1833 36.461ZM28.4732 35.2252C28.7871 35.0431 29.0892 34.856 29.3783 34.6656C29.3978 34.3188 29.4081 33.9624 29.4081 33.5983C29.4081 33.2341 29.3978 32.8777 29.3783 32.5309C29.0892 32.3405 28.7871 32.1534 28.4732 31.9713C28.1593 31.7893 27.847 31.62 27.5383 31.4636C27.2296 31.62 26.9173 31.7893 26.6034 31.9713C26.2895 32.1534 25.9875 32.3405 25.6983 32.5309C25.6788 32.8777 25.6685 33.2341 25.6685 33.5983C25.6685 33.9624 25.6788 34.3188 25.6983 34.6656C25.9875 34.856 26.2895 35.0431 26.6034 35.2252C26.9173 35.4073 27.2296 35.5766 27.5383 35.733C27.847 35.5766 28.1593 35.4073 28.4732 35.2252ZM30.1495 36.7852C30.2361 36.2926 30.3033 35.7713 30.3483 35.2283C30.7938 34.9176 31.2096 34.5985 31.5909 34.2769C31.899 34.5738 32.1695 34.8666 32.3985 35.1493C32.8148 35.6631 33.059 36.1006 33.166 36.4317C33.2732 36.7631 33.2118 36.8753 33.2058 36.8858C33.1997 36.8964 33.1337 37.0059 32.7945 37.0784C32.4555 37.1508 31.9563 37.157 31.3053 37.0517C30.9472 36.9938 30.5595 36.9048 30.1495 36.7852ZM30.4122 33.9301C30.5555 33.8197 30.6943 33.709 30.8284 33.5983C30.6943 33.4875 30.5555 33.3768 30.4122 33.2665C30.414 33.3765 30.4149 33.4871 30.4149 33.5983C30.4149 33.7094 30.414 33.8201 30.4122 33.9301ZM32.3985 32.0472C32.1695 32.3299 31.899 32.6227 31.5909 32.9196C31.2096 32.598 30.7938 32.279 30.3483 31.9682C30.3032 31.4252 30.2361 30.904 30.1495 30.4114C30.4589 30.3211 30.7555 30.2483 31.0363 30.1931C31.3742 30.5045 31.8868 30.5752 32.3049 30.3326C32.4192 30.2664 32.5168 30.1823 32.5963 30.0858C32.6675 30.0943 32.7336 30.1052 32.7945 30.1182C33.1337 30.1907 33.1997 30.3001 33.2057 30.3107C33.2118 30.3213 33.2732 30.4334 33.166 30.7648C33.059 31.096 32.8148 31.5334 32.3985 32.0472ZM28.6315 28.5938C28.7606 28.9344 28.8778 29.3162 28.9796 29.7327C28.5117 29.9037 28.0289 30.1059 27.5383 30.3382C27.0477 30.1059 26.5649 29.9037 26.097 29.7327C26.1988 29.3162 26.316 28.9344 26.4451 28.5938C26.6798 27.9747 26.9348 27.5434 27.1667 27.2847C27.3988 27.0258 27.5262 27.0231 27.5383 27.0231C27.5504 27.0231 27.6778 27.0258 27.9099 27.2847C28.1418 27.5434 28.3968 27.9747 28.6315 28.5938ZM29.1833 30.7355C29.0208 30.7968 28.856 30.8622 28.6893 30.9318C28.785 30.9852 28.8808 31.0397 28.9766 31.0953C29.0724 31.1509 29.1673 31.207 29.2612 31.2635C29.2378 31.0837 29.2118 30.9075 29.1833 30.7355ZM25.8933 30.7355C26.0558 30.7968 26.2206 30.8622 26.3874 30.9318C26.2916 30.9852 26.1959 31.0397 26.1 31.0953C26.0042 31.1509 25.9093 31.207 25.8154 31.2636C25.8388 31.0837 25.8648 30.9075 25.8933 30.7355ZM24.9271 30.4113C24.8405 30.904 24.7733 31.4252 24.7283 31.9682C24.2828 32.279 23.8671 32.598 23.4857 32.9196C23.2533 32.6956 23.0422 32.4739 22.8542 32.2572C22.9537 31.8074 22.7583 31.3261 22.3402 31.0835C22.2259 31.0172 22.1046 30.9743 21.9817 30.9534C21.9534 30.8872 21.9298 30.8243 21.9106 30.7648C21.8034 30.4334 21.8648 30.3213 21.8709 30.3107C21.8769 30.3001 21.9429 30.1907 22.2822 30.1182C22.6211 30.0457 23.1203 30.0395 23.7713 30.1448C24.1294 30.2027 24.5171 30.2917 24.9271 30.4113ZM24.7283 35.2283C24.2828 34.9176 23.8671 34.5985 23.4857 34.2769C23.1776 34.5738 22.9071 34.8666 22.6781 35.1493C22.2618 35.6631 22.0176 36.1006 21.9106 36.4317C21.8035 36.7631 21.8648 36.8753 21.8709 36.8858C21.8769 36.8964 21.9429 37.0059 22.2822 37.0784C22.6211 37.1508 23.1203 37.157 23.7713 37.0517C24.1295 36.9938 24.5171 36.9048 24.9271 36.7852C24.8405 36.2926 24.7734 35.7713 24.7283 35.2283ZM24.6644 33.2665C24.5211 33.3768 24.3823 33.4875 24.2482 33.5983C24.3823 33.709 24.5211 33.8197 24.6644 33.9301C24.6626 33.8201 24.6617 33.7094 24.6617 33.5983C24.6617 33.4871 24.6626 33.3765 24.6644 33.2665ZM27.5 35.1445C28.3261 35.1445 28.9958 34.4716 28.9958 33.6416C28.9958 32.8116 28.3261 32.1387 27.5 32.1387C26.6739 32.1387 26.0042 32.8116 26.0042 33.6416C26.0042 34.4716 26.6739 35.1445 27.5 35.1445Z" fill="#848484"/>
<ellipse cx="21.5167" cy="10.6358" rx="2.87657" ry="2.89017" fill="#E11E1E"/>
<ellipse cx="21.5167" cy="10.6358" rx="2.87657" ry="2.89017" fill="url(#paint3_linear_4_175)"/>
<ellipse cx="21.5167" cy="10.6358" rx="2.45815" ry="2.46978" fill="url(#paint4_linear_4_175)"/>
<ellipse cx="34.2887" cy="10.6358" rx="2.87657" ry="2.89017" fill="#E11E1E"/>
<ellipse cx="34.2887" cy="10.6358" rx="2.87657" ry="2.89017" fill="url(#paint5_linear_4_175)"/>
<ellipse cx="34.2887" cy="10.6358" rx="2.45816" ry="2.46978" fill="url(#paint6_linear_4_175)"/>
<ellipse cx="27.5" cy="4.04615" rx="4.02719" ry="4.04615" fill="#36CE29"/>
<ellipse cx="27.5" cy="4.04615" rx="4.02719" ry="4.04615" fill="url(#paint7_linear_4_175)"/>
<ellipse cx="27.5" cy="4.04615" rx="3.44142" ry="3.45762" fill="url(#paint8_linear_4_175)"/>
<defs>
<linearGradient id="paint0_linear_4_175" x1="178" y1="9" x2="178" y2="49" gradientUnits="userSpaceOnUse">
<stop stop-color="#E8D9B4"/>
<stop offset="1" stop-color="#CFB575"/>
</linearGradient>
<linearGradient id="paint1_linear_4_175" x1="40.8425" y1="13.4949" x2="40.8425" y2="59.2777" gradientUnits="userSpaceOnUse">
<stop stop-color="#E8D9B4"/>
<stop offset="1" stop-color="#CFB575"/>
</linearGradient>
<linearGradient id="paint2_linear_4_175" x1="14.1575" y1="13.4949" x2="14.1575" y2="59.2777" gradientUnits="userSpaceOnUse">
<stop stop-color="#E8D9B4"/>
<stop offset="1" stop-color="#CFB575"/>
</linearGradient>
<linearGradient id="paint3_linear_4_175" x1="21.5167" y1="7.74567" x2="21.5167" y2="13.526" gradientUnits="userSpaceOnUse">
<stop stop-color="white" stop-opacity="0.5"/>
<stop offset="1" stop-color="white" stop-opacity="0"/>
</linearGradient>
<linearGradient id="paint4_linear_4_175" x1="21.5167" y1="8.16606" x2="21.5167" y2="13.1056" gradientUnits="userSpaceOnUse">
<stop stop-color="white"/>
<stop offset="1" stop-color="white" stop-opacity="0"/>
</linearGradient>
<linearGradient id="paint5_linear_4_175" x1="34.2887" y1="7.74567" x2="34.2887" y2="13.526" gradientUnits="userSpaceOnUse">
<stop stop-color="white" stop-opacity="0.5"/>
<stop offset="1" stop-color="white" stop-opacity="0"/>
</linearGradient>
<linearGradient id="paint6_linear_4_175" x1="34.2887" y1="8.16606" x2="34.2887" y2="13.1056" gradientUnits="userSpaceOnUse">
<stop stop-color="white"/>
<stop offset="1" stop-color="white" stop-opacity="0"/>
</linearGradient>
<linearGradient id="paint7_linear_4_175" x1="27.5" y1="0" x2="27.5" y2="8.0923" gradientUnits="userSpaceOnUse">
<stop stop-color="white" stop-opacity="0.5"/>
<stop offset="1" stop-color="white" stop-opacity="0"/>
</linearGradient>
<linearGradient id="paint8_linear_4_175" x1="27.5" y1="0.588531" x2="27.5" y2="7.50377" gradientUnits="userSpaceOnUse">
<stop stop-color="white"/>
<stop offset="1" stop-color="white" stop-opacity="0"/>
</linearGradient>
</defs>
</svg>
