<svg width="210" height="211" viewBox="0 0 210 211" fill="none" xmlns="http://www.w3.org/2000/svg">
<path d="M200 111C200 129.763 194.722 148.147 184.768 164.051C174.814 179.956 160.587 192.739 143.712 200.941C126.836 209.142 107.994 212.43 89.3389 210.43C70.6833 208.43 52.9668 201.221 38.214 189.629C23.4613 178.036 12.2675 162.527 5.91192 144.874C-0.443651 127.221 -1.7046 108.135 2.27319 89.7993C6.25098 71.4633 15.307 54.6162 28.4064 41.1835C41.5057 27.7507 58.1199 18.2741 76.3501 13.8368L100 111H200Z" fill="#0E7734"/>
<path d="M86.4366 2.81582C101.154 -0.75269 116.491 -0.931769 131.288 2.29209C146.085 5.51596 159.956 12.0585 171.856 21.4262C183.755 30.7938 193.372 42.7418 199.979 56.3685C206.587 69.9952 210.013 84.9447 210 100.089L110 100L86.4366 2.81582Z" fill="#E11E1E"/>
</svg>
