<svg width="273" height="184" viewBox="0 0 273 184" fill="none" xmlns="http://www.w3.org/2000/svg">
<rect x="101" y="5" width="166.978" height="113" rx="15" fill="white" stroke="#BBBBBB" stroke-width="10"/>
<rect x="5" y="22" width="166.978" height="113" rx="15" fill="white" stroke="#848484" stroke-width="10"/>
<rect x="42" y="40" width="190" height="129" rx="15" fill="white" stroke="#1D7C9B" stroke-width="10"/>
<path d="M215 86H65" stroke="#BBBBBB" stroke-width="7" stroke-linecap="round" stroke-linejoin="round"/>
<path d="M215 96H65" stroke="#BBBBBB" stroke-width="7" stroke-linecap="round" stroke-linejoin="round"/>
<path d="M215 106H65" stroke="#BBBBBB" stroke-width="7" stroke-linecap="round" stroke-linejoin="round"/>
<path d="M215 116H65" stroke="#BBBBBB" stroke-width="7" stroke-linecap="round" stroke-linejoin="round"/>
<path d="M215 126H65" stroke="#BBBBBB" stroke-width="7" stroke-linecap="round" stroke-linejoin="round"/>
<path d="M215 136H65" stroke="#BBBBBB" stroke-width="7" stroke-linecap="round" stroke-linejoin="round"/>
<path d="M114 146H65" stroke="#BBBBBB" stroke-width="7" stroke-linecap="round" stroke-linejoin="round"/>
<path d="M232 68.5H72.5" stroke="#1D7C9B" stroke-width="7" stroke-linecap="round" stroke-linejoin="round"/>
<circle cx="215" cy="55" r="5" fill="#E11E1E"/>
<circle cx="200" cy="55" r="5" fill="#0E7734"/>
<circle cx="185" cy="55" r="5" fill="#848484"/>
<path d="M161 134L200.5 173.5" stroke="#E11E1E" stroke-width="20" stroke-linecap="round" stroke-linejoin="round"/>
<circle cx="148" cy="121" r="30" fill="white" stroke="#E11E1E" stroke-width="10"/>
<mask id="mask0_818_649" style="mask-type:alpha" maskUnits="userSpaceOnUse" x="123" y="96" width="50" height="50">
<circle cx="148" cy="121" r="20" fill="white" stroke="#E11E1E" stroke-width="10"/>
</mask>
<g mask="url(#mask0_818_649)">
<path d="M91 101H174.5" stroke="#BBBBBB" stroke-width="13" stroke-linecap="round" stroke-linejoin="round"/>
<path d="M91 121H174.5" stroke="#BBBBBB" stroke-width="13" stroke-linecap="round" stroke-linejoin="round"/>
<path d="M91 141H174.5" stroke="#BBBBBB" stroke-width="13" stroke-linecap="round" stroke-linejoin="round"/>
</g>
</svg>
